<svg xmlns="http://www.w3.org/2000/svg" viewBox="0 0 1080 1080"><path d="M285.27 166.19l.07 122.91-2.24 5.94c2.17.31 2.81-1.77 4.93-2.16 15.24-2.8 30.49-4.13 45.79-6.63 9.29-1.52 19.29-3.87 28.51-5.34 6.59-1.05 15.08.75 21.81-.03 22.33-2.59 37.73-3 60.09-.09 3.49.45 9.07-.74 11.82.23 1.49.52 1.4 2.86 2.52 3.14 11.44 2.86 19.96 2.94 31.63 9.08 19.4 10.22 30.99 22.26 38.97 41.86 2.03 4.98.83 5.03 1.84 9.44.2.87 1.98.29 2.25 2.31 6.8 52.07-16.55 103.36-45.31 144.34l-32.32 32.63c2.55 3.39 4.97 2.09 7.89 3.03 8.95 2.88 18.63 5.79 26.18 9.62 37.69 19.07 82 36.34 92.59 83.24.27 1.2 2.81.73 3.33 3.45 1.03 5.42.96 46.94-.07 52.41-.78 4.12-4.25 12.61-5.36 17.57-12.1 54.35-38.85 110.26-87.5 144.05-25.16 17.47-54.42 28.72-84.47 36.69-29.94 7.94-63.53 9.41-94.09 0-18.71-5.77-38.44-16.28-54.54-27.3l-15.24-13.14c-3.17 3.1-3.19 7.98-4.84 11.57-.84 1.82-3.2 2.79-3.32 3.38-.61 2.84.55 6.54-.06 9.38-.18.83-7.67 11.71-8.68 13.57-3.91 7.14-5.11 15.56-13.94 18.59-11.43 3.92-13.73-3.94-20.29-9.16-.9-.71-3.13-.34-4.6-1.42-4.75-3.51-4.85-6.23-7.18-10.09-9.44-15.62-29.28-45.99-22.72-66.69 3.05-9.61.86-13.04 2.01-22.19.26-2.09 2.09-1.04 2.36-3.13 1.98-15.69 2.18-32.01 4.23-47.09 1.54-11.36 5.75-23.08 7.64-33.85 3.74-21.3 7.15-43.31 12.15-65.32 5.61-24.71 10.64-49.53 16.36-74.35 14.68-63.65 29.59-128.43 42.79-189.81.79-3.66 3.2-7.01 1.93-11.73-2.79.37-6.51-.58-9.08.03-1.47.35-4.17 1.42-7.8 2.21-42.17 9.14-90.08 24.97-132.38 34.88-4.5 1.06-12.6 1.06-17.06 2.18-1.13.28-1.03 2.65-2.52 3.14-1.77.58-4.16-.14-6.17.42-20.37 5.58-43.04 13.48-61.75 20.37-2.16.79-6.52 2.55-8.38 2.32l-.53-2.17c.24-.37 6.01-3.27 6.27-3.54 1.54-1.6 1.02-5.87 1.44-6.24.52-.45 2.62.29 3.43-.12 6.94-3.54 12.27-6.18 19.96-10.87 64.88-39.58 136.7-70.69 205.49-92.81 6.62-.19 13.44-2.52 19.83-4.55-1.92-6.22 2.71-10.79 3.41-14.62 2.93-16.12 4.91-32.24 8.76-48.21 1.43-5.94 1.26-17.29 2.15-23.88 1.55-11.38 6.21-23.27 7.76-34.83.62-4.61-2.31-11.44 4.31-12.62zm153.69 175.07c-2.84-1.31-8.69.27-12.21-.39-2.07-.39-3.27-2.22-4.84-2.59-8.02-1.91-71.64-1.84-79.65.08s-17.26 2.91-24.96 4.71c-3.8.89-9.94-.6-14.06-.06-2.02.26-1.43 2.04-2.32 2.25-2.77.65-6.7-.43-9.68-.03-3.41.46-6.13 3.5-10.32 2.23-.98.91.64 22.71.06 26.82-1.68 11.98-.8 22.02-2.15 32.78-.26 2.09-2.09 1.04-2.36 3.13-.87 6.91 1.17 16.11.03 22.95-.48 2.89-3.02 4.55-3.11 6.54-.25 5.16 1.95 12.36.93 18.58-.48 2.89-2.72 4.23-3.18 6.65-1.02 5.41.79 13.03.01 18.57-2.33 16.67-2.31 33.08-4.34 49.16-.26 2.09-2.08 1.03-2.35 3.13-.24 1.85-.44 9.99 1.74 10.44 2.17.44 1.99-2.29 3.01-2.96 4.37-2.86 11.39-7.04 15.76-9.37 9.83-5.23 22.03-9.41 31.26-13.47 11.03-4.84 20.84-8.95 31.11-14.47 31.53-16.95 55.24-39.97 81.55-63.47 17.64-15.76 37.54-41.09 43.17-63.66.24-.96 1.97-.33 2.23-2.34.63-4.83-.57-11.16-.13-16.21-2.87-1.58-5.74-6.61-7.93-8.13-7.18-4.98-20.4-7.71-27.27-10.88zM264.52 569.13c-1.34-1.74-1.98.02-2.18 1.62-.38 3.05.51 6.51-.22 9.63-.5 2.17-2.71 3.53-3.06 5.77-.62 3.99 1.78 12.87.74 18.33-.45 2.36-2.42 4.07-2.85 6.77-2.72 16.78-.59 34.07-4.41 50.37-3.05 13.02-.3 40.07-2.12 54.47-.26 2.09-2.09 1.04-2.36 3.13-1.4 11.09 1.21 25.21.09 36.65 4.88-.23 6.8-4.81 12.32-3.06 1.08.34 6.3 2.87 8.32 3.72 13.22 5.6 28.7 16.88 41.28 20.06 8.09 2.05 18.6 5.63 25.93 6.65 33.11 4.62 58.69-7.88 84.51-22.89 33.92-19.72 71.17-49.08 79.91-88.9.18-.83 1.95-.66 2.15-1.49.59-2.51-.54-5.82.05-8.33.19-.82 1.94-.67 2.14-1.5.84-3.49-.57-8.91.08-12.85.35-2.15 2.73-3.56 2.16-6.43-.13-.65-1.59-.55-2.1-1.59-4.63-9.58-7.27-10.82-15.58-15.61-5.82-3.36-11.46-8.78-18.21-11.77s-14.08-5.14-19.85-7.38c-34.99-13.61-80.98-19.67-118.27-11.3-9.68 2.17-23.98 5.64-33.78 8.97-1.56.53-2.72 2.19-4.04 2.56-6.55 1.84-8.69-3.61-12.49-6.74-1.39-1.14-4.78-1.54-5.8-2.94-2.58-3.53-5.75-11.79-8.11-16.24-1.39-2.62-5.15-5.29-4.23-9.66zM1043.13 833.41c.48 2.43 4.46 1.55 6.2 2.55 1.31.76 12.03 9.24 12.99 10.45 1.66 2.11 2.13 4.3 1.52 6.97-.17.75-1.6.85-2.02 1.69-1.3 2.62-2.3 5.41-3.52 8.05-1.83 3.95-8 19.3-11.19 21.2-1.23.74-3 .48-4.59 1.45s-2.46 3.6-4.54 4.21c-1.84.54-6.58.54-8.57.27-2.45-.34-11.71-4.34-14.93-5.6-13.75-5.4-25.2-6.59-40.5-11.03-52.86-15.34-117.77-14.34-173.8-9.57-8.01.68-36.68 1.21-43.46-.33-1.72-.39-5.65-4.23-7.41-5.66-3.28-2.66-12.89-9.62-15.31-13.12-1.22-1.77-2.54-7.09-3.6-8.94-5.53-9.59-10.87-16.34-13.85-28.01-.23-.9-1.92-.72-2.12-1.52-.54-2.26-.46-15.68-.11-18.43.24-1.85 1.63-1.34 2.15-2.45s.13-2.68 1.15-4.08c1.63-2.24 8.16-6.68 8.55-7.33 9.72-16.43 26.79-28.97 39.93-43.53 14.58-16.16 28.83-34.29 41.63-51.27 11.55-15.31 21.65-29.86 32.73-46.45 26.48-39.66 54.64-82.21 75.02-127.3 13.08-28.95 26.19-60.63 32.58-92.13 1.93-9.5 1.01-19.41 2.15-28.42.26-2.09 2.09-1.04 2.36-3.13.89-7.02-.68-33.57-2.29-40.27-.2-.83-1.96-.68-2.14-1.49-.43-1.93.35-4.28-.05-6.32-2.2-11.18-16.95-21.81-24.33-30.81-10.99-4.1-21.69-11.15-34.12-14.5-9.17-2.47-31.14-5.81-41.5-4.51-2.09.26-1.04 2.09-3.13 2.36-4.11.52-10.32-.96-14.07-.06-18.48 4.43-40.74 11.1-58.36 16.28-2.14.63-12.33 3.37-13.38 2.26-1.24-5.99 3.45-5.43 6.41-7.2 65.29-39.03 150.37-63.38 209.08 1.99 25.58 33.48 26.08 88.22 20.44 129.21-2.87 20.9-9.4 41.16-16.36 62.29-30.09 91.27-82.79 181.87-134.99 261.34-2.74 4.17-6.11 8.21-9.23 12.1 5 1.57 8.66-1.69 12.5-2.23 4.14-.58 10.24.93 14.05.03 9.36-2.19 14.16-.94 23.08-2.21 35.59-5.1 89.27-3.64 124.6 2.18 6.6 1.09 12.94.85 19.56 2.28 9.27 2.01 17.02 4.61 24.9 9.81 1.2.79 1.79 3 4.11 3.73 3.69 1.16 9.7 1.91 12.81 3.09.38.15 5.61 5.54 5.7 5.94.75 3.52.62 25.29-.02 29.19-.46 2.81-2.5 3.98-2.97 5.77-.58 2.22.49 11.21-2.98 11.21h-26.75zM728.62 194.59c-1.25 11.99 1.68 27.26.06 38.82-2.77 19.78-1.71 37.99-4.48 57.76-1.78 12.73 1.77 29.85.14 42.72-.26 2.09-2.09 1.04-2.36 3.13-3.13 24.78 1.38 58.7-2.04 83.12-2.3 16.45-.38 30.8-2.21 45.84-.48 3.92-2.92 5.2-3.35 8.66-1.56 12.25 1.8 28.43.11 40.51-2.29 16.35-2.19 32.67-4.48 49.03-3.14 22.44.85 53.69-2.04 76.57-.26 2.09-2.09 1.04-2.36 3.13-1.49 11.82.22 28.57-2.11 40.46-.48 2.42-2.77 3.07-3.24 5.49-.7 3.57.55 8.42.07 12.07-.27 2.02-2.04 1.43-2.24 2.32-.71 2.99.47 7.29-.08 10.66-5.05 30.79-15.49 61.23-22.87 91.55-.11.44-2.28 3.14-3.55 7.62-5.1 17.92-9.73 33.21-15.86 50.76-2.8 8.02-4.41 15.37-7.1 23.45-.51 1.53-3.76 10.2-4.25 10.49-2.92 1.74-9.3-3.48-9.6-4.96-.95-4.64.77-11.26-.11-16.07-1.16-6.36-1.99-4.84-2.07-13.11-.36-40.04-.49-80.42 2.12-120.18.74-11.22 2.88-24.89 4.43-35.97 1.6-11.45-.28-33.16 2.15-43.53 1.53-6.5 3.35-15.61 4.4-23.08.61-4.32-1.03-11.39-.08-15.13.31-1.2 2.81-.74 3.33-3.46.72-3.78-.6-8.99.03-13.09 4.87-31.5 9.36-63.31 14.19-95.01 3.79-24.81 8.12-48.76 13.64-73.72 5.32-24.07 7.49-49.63 14.23-74.25 3.04-11.12 4.61-24.41 7-34.64 3.13-13.39 3.21-29.93 6.55-43.27.28-1.12 2.62-1.03 3.14-2.52.93-2.66-.47-6.73.19-9.5 2.35-9.85 4.12-22.37 6.55-32.76 2.51-10.74 7.82-24.3 9.75-36.29.75-4.67-2.37-12.8 4.42-13.59z" fill="currentcolor"/></svg>