<svg xmlns="http://www.w3.org/2000/svg" viewBox="0 0 91.02 62.11" className="invisible fill-current dark:text-white"><path d="M23.73.14c-.07.07-.12.37-.12.69,0,.31-.04.56-.09.56s-.09.26-.09.6-.04.6-.09.6c-.05,0-.09.19-.09.44s-.06.56-.14.71c-.07.14-.14.49-.14.76s-.04.5-.09.5-.09.24-.09.55-.04.58-.09.61c-.05.03-.09.26-.09.51s-.04.48-.09.51c-.05.03-.09.28-.09.56s-.04.53-.09.56c-.05.03-.09.29-.09.56s-.04.5-.09.5c-.05,0-.09.22-.09.48,0,.29-.06.56-.14.67s-.14.33-.14.51c0,.27-.05.35-.25.44-.14.06-.37.12-.51.12s-.26.04-.26.09c0,.05-.17.09-.37.09s-.37.04-.37.09c0,.05-.14.09-.31.09-.17,0-.36.06-.43.14s-.23.14-.38.14c-.14,0-.29.04-.31.09-.03.05-.16.09-.28.09s-.25.04-.28.09c-.03.05-.18.09-.33.09-.15,0-.27.04-.27.09,0,.05-.12.09-.28.09-.15,0-.28.04-.28.09,0,.05-.1.09-.22.09-.13,0-.26.04-.29.09-.03.05-.16.09-.29.09-.12,0-.22.04-.22.09,0,.05-.13.09-.28.09-.17,0-.31.06-.33.14-.04.08-.18.14-.32.14s-.27.04-.27.09c0,.05-.08.09-.18.09-.1,0-.21.04-.24.09-.03.05-.18.09-.33.09-.15,0-.27.04-.27.09,0,.05-.08.09-.19.09s-.19.04-.19.09c0,.05-.1.09-.22.09-.13,0-.26.04-.29.09-.03.05-.13.09-.22.09s-.22.06-.29.14-.19.14-.29.14c-.1,0-.18.04-.18.09,0,.05-.08.09-.19.09s-.19.04-.19.09c0,.05-.08.09-.19.09s-.19.04-.19.09c0,.05-.08.09-.19.09s-.19.04-.19.09c0,.05-.1.09-.23.09s-.23.04-.23.09c0,.05-.06.09-.13.09-.06,0-.31.1-.56.23s-.5.23-.57.23c-.06,0-.13.04-.13.09,0,.05-.08.09-.19.09s-.19.04-.19.09c0,.05-.08.09-.19.09s-.19.04-.19.09c0,.05-.07.09-.17.09s-.2.04-.25.08c-.22.2-2.71,1.49-2.88,1.49-.07,0-.13.04-.13.09,0,.05-.15.16-.32.24s-.32.19-.32.23-.08.08-.19.08-.19.04-.19.09c0,.05-.07.09-.17.09s-.22.08-.3.19-.19.19-.26.19c-.06,0-.22.1-.35.23s-.29.23-.36.23-.14.04-.14.09c0,.05-.1.09-.23.09s-.23.04-.23.09c0,.05-.12.09-.28.09-.15,0-.28.04-.28.09,0,.05-.08.09-.19.09-.14,0-.19.06-.19.27s-.06.3-.2.34c-.2.06-.44.26-.44.35s.36.06.42-.04c.03-.06.14-.09.24-.09.09,0,.18-.05.18-.09,0-.06.17-.09.36-.09s.38-.05.4-.1.15-.11.3-.11c.14,0,.28-.06.31-.12.03-.07.17-.13.31-.13.15,0,.3-.05.32-.09.03-.06.19-.09.37-.09s.34-.05.37-.09c.03-.06.16-.09.28-.09s.25-.05.28-.09c.03-.06.16-.09.28-.09s.25-.05.28-.09c.03-.06.15-.09.27-.09.11,0,.24-.04.3-.08.05-.05.33-.15.64-.24.31-.08.63-.19.71-.24.09-.05.31-.08.49-.08s.32-.05.32-.09c0-.06.17-.09.36-.09s.4-.05.43-.09c.03-.06.22-.09.43-.09s.36-.05.36-.09c0-.06.17-.09.36-.09s.4-.05.43-.09c.03-.06.22-.09.43-.09.24,0,.39-.05.42-.14.04-.09.19-.14.41-.14.2,0,.39-.05.42-.09.03-.06.18-.09.33-.09.15,0,.27-.05.27-.09,0-.06.17-.09.37-.09s.37-.05.37-.09c0-.06.17-.09.36-.09s.4-.05.43-.09c.03-.06.19-.09.37-.09s.34-.05.37-.09c.03-.06.19-.09.37-.09s.34-.05.37-.09c.03-.06.21-.09.41-.09s.41-.06.47-.14.27-.14.47-.14.38-.05.41-.09c.03-.06.22-.09.43-.09s.36-.05.36-.09c0-.06.19-.09.42-.09s.42-.05.42-.09c0-.06.17-.09.37-.09s.37-.05.37-.09c0-.06.17-.09.36-.09s.4-.05.43-.09c.03-.06.25-.09.48-.09h.42l-.05.39c-.12.89-.22,1.38-.32,1.48-.06.06-.11.29-.11.51s-.04.4-.09.4c-.05,0-.09.2-.09.46s-.04.46-.09.46c-.05,0-.09.19-.09.42s-.04.42-.09.42c-.05,0-.09.19-.09.41s-.04.44-.09.47c-.05.03-.09.24-.09.46s-.04.44-.09.46c-.05.03-.09.21-.09.41s-.06.41-.14.47-.14.27-.14.47-.04.38-.09.41-.09.24-.09.47-.04.41-.09.41c-.05,0-.09.19-.09.42s-.04.42-.09.42c-.05,0-.09.19-.09.41s-.04.44-.09.47c-.05.03-.09.24-.09.46s-.04.43-.08.45-.1.21-.12.4c-.06.43-.25,1.22-.36,1.44-.05.09-.08.33-.08.54s-.04.37-.09.37c-.05,0-.09.17-.09.36s-.04.4-.09.43c-.05.03-.09.24-.09.46s-.04.44-.09.46c-.05.03-.09.24-.09.47s-.04.41-.09.41c-.05,0-.09.19-.09.41s-.05.43-.1.44-.12.23-.15.47-.09.46-.13.49c-.05.03-.08.21-.08.41s-.04.39-.09.42c-.05.03-.09.26-.09.52s-.04.45-.09.45c-.05,0-.09.19-.09.42s-.04.42-.09.42c-.05,0-.09.2-.09.46s-.04.46-.09.46c-.05,0-.09.19-.09.41s-.05.44-.09.47c-.06.03-.09.23-.09.44s-.06.47-.14.56c-.07.1-.14.36-.14.58s-.04.4-.09.4c-.05,0-.09.2-.09.45s-.04.49-.09.52c-.05.03-.09.26-.09.52s-.04.45-.09.45c-.05,0-.09.23-.09.51s-.04.51-.09.51c-.05,0-.09.2-.09.45s-.05.49-.09.52c-.06.03-.09.28-.09.56,0,.31-.05.55-.14.64-.09.08-.14.31-.14.65,0,.28-.04.54-.09.56-.05.03-.09.32-.09.65s-.05.62-.09.65c-.06.03-.09.36-.09.74s-.04.71-.09.74c-.05.03-.09.41-.09.84s-.04.78-.09.78-.09.38-.09.96c0,.55-.04,1-.09,1.03-.12.07-.12,1.78,0,1.85.06.03.09.14.09.24,0,.25.21.92.3.92.05,0,.07.06.07.12,0,.16.26.69.37.76.05.03.06.11.03.19-.03.07,0,.14.05.14.11,0,.57.69.57.88,0,.07.05.14.09.14.06,0,.09.08.09.19s.05.19.09.19c.06,0,.09.06.09.15,0,.17.68.87.84.87.06,0,.18.07.26.17s.32.31.55.46c.32.23.46.28.74.23.19-.03.39-.11.44-.18.06-.07.16-.13.21-.13.16,0,.38-.24.38-.41,0-.08.05-.15.09-.15.06,0,.09-.08.09-.19s.04-.19.07-.19c.05,0,.14-.17.2-.37s.18-.42.25-.47c.06-.06.12-.16.12-.21s.08-.2.19-.33c.1-.14.19-.38.19-.58,0-.22.06-.43.19-.55.1-.11.19-.29.19-.4,0-.21.19-.69.29-.69.03,0,.19.12.34.28.17.15.34.28.4.28.06,0,.23.15.39.32.15.18.33.32.41.32s.26.12.4.28c.14.15.32.28.41.28s.15.04.15.07c0,.05.19.16.42.26.23.09.42.2.42.24s.08.07.18.07c.1,0,.21.04.24.09.03.05.14.09.24.09.09,0,.18.04.18.09,0,.05.08.09.19.09s.19.04.19.09c0,.05.08.09.19.09s.26.04.35.08c.08.05.22.11.3.14s.2.09.28.14c.24.14.79.29,1.09.29.16,0,.31.04.34.09.03.05.28.09.55.09s.53.05.57.09c.18.18,4.33,0,4.53-.19.05-.05.29-.08.53-.08s.44-.05.44-.09c0-.06.17-.09.37-.09.25,0,.4-.05.43-.14.04-.08.18-.14.36-.14s.34-.05.37-.09.16-.09.28-.09.25-.05.28-.09c.03-.06.16-.09.28-.09s.25-.05.28-.09c.03-.06.18-.09.33-.09.15,0,.27-.05.27-.09,0-.06.08-.09.19-.09s.19-.04.19-.08.11-.11.26-.14c.36-.09.76-.28.76-.35,0-.05.06-.07.14-.07s.28-.08.46-.19.39-.19.46-.19.14-.04.14-.07c0-.05.15-.15.32-.23s.32-.19.32-.25c0-.05.07-.09.17-.09s.22-.08.3-.19.19-.19.28-.19.2-.08.28-.19.19-.19.24-.19.35-.23.65-.51c.31-.28.59-.51.64-.51.12,0,.59-.45.83-.79.1-.14.39-.48.65-.76.25-.29.52-.63.59-.78.06-.15.16-.27.2-.27.04,0,.15-.15.23-.32s.19-.32.23-.32.08-.08.08-.19.03-.19.07-.19c.04,0,.11-.09.17-.21l.29-.57c.11-.2.3-.58.42-.83.13-.26.27-.55.32-.65.33-.63.49-1.01.49-1.17,0-.09.05-.18.09-.18.06,0,.09-.13.09-.28,0-.16.05-.28.09-.28.06,0,.09-.1.09-.22s.06-.27.14-.33.14-.21.14-.33c0-.11.04-.24.09-.27s.09-.18.09-.32.05-.3.09-.32c.06-.03.09-.18.09-.32s.04-.3.09-.32c.05-.03.09-.24.09-.46s.05-.44.09-.46c.06-.03.09-.24.09-.46s.05-.44.09-.46c.06-.04.09-.95.09-2.45s-.04-2.42-.09-2.45c-.05-.03-.09-.18-.09-.33,0-.15-.04-.35-.09-.45s-.13-.27-.19-.37-.09-.25-.09-.32-.04-.14-.09-.14c-.05,0-.09-.07-.09-.17,0-.08-.1-.24-.23-.33s-.23-.23-.23-.3c0-.17-2-2.17-2.17-2.17-.08,0-.15-.04-.15-.07,0-.05-.11-.14-.25-.21-.15-.06-.35-.22-.46-.33-.11-.12-.24-.21-.3-.21-.14,0-.84-.4-.84-.48,0-.04-.08-.07-.19-.07s-.19-.04-.19-.07c0-.05-.17-.14-.38-.2-.21-.07-.4-.19-.43-.25s-.13-.12-.22-.12-.18-.05-.18-.09c0-.06-.08-.09-.18-.09-.1,0-.21-.05-.24-.09-.03-.06-.18-.09-.33-.09-.15,0-.27-.05-.27-.09,0-.06-.08-.09-.19-.09s-.19-.05-.19-.09c0-.06-.07-.09-.17-.09s-.25-.06-.35-.14c-.09-.07-.27-.14-.38-.14s-.23-.05-.26-.09c-.03-.06-.2-.09-.38-.09s-.31-.05-.31-.09c0-.06-.11-.09-.24-.09s-.3-.06-.37-.14c-.12-.12.03-.3,1.23-1.51.75-.75,1.44-1.49,1.51-1.65.07-.15.21-.35.31-.45.29-.33.57-.73.7-1,.07-.14.17-.25.21-.25.04,0,.07-.08.07-.19s.05-.19.09-.19c.06,0,.09-.07.1-.17,0-.08.13-.37.27-.62.15-.26.33-.61.42-.79s.19-.4.24-.48c.05-.09.08-.25.08-.35s.05-.19.09-.19c.06,0,.09-.15.09-.32s.05-.32.09-.32c.06,0,.09-.08.09-.18,0-.1.05-.21.09-.24.06-.03.09-.13.09-.21s.06-.28.14-.43c.07-.14.14-.36.14-.48,0-.11.05-.24.09-.27.06-.03.09-.22.09-.42s.05-.39.09-.42c.06-.04.09-.83.09-2.09s-.04-2.03-.09-2.03c-.05,0-.09-.17-.09-.36s-.04-.4-.09-.43c-.05-.03-.09-.14-.09-.24,0-.09-.03-.18-.06-.18-.1,0-.4-.54-.4-.7,0-.07-.04-.13-.08-.13s-.12-.08-.15-.19c-.08-.25-1.23-1.38-1.4-1.38-.07,0-.13-.04-.13-.08s-.22-.19-.48-.33c-.27-.13-.69-.36-.95-.51-.25-.14-.56-.27-.67-.27-.12,0-.21-.06-.21-.1,0-.06-.15-.09-.32-.09s-.32-.05-.32-.09c0-.06-.19-.09-.42-.09s-.42-.05-.42-.09c0-.06-.23-.09-.52-.09s-.59-.04-.69-.09c-.09-.05-1.14-.11-2.31-.14-1.78-.04-2.19-.02-2.41.09-.19.1-.58.14-1.38.14-.64,0-1.13.04-1.17.09-.03.06-.44.09-.93.09s-.9.04-.93.09c-.03.05-.31.09-.64.09s-.61.04-.67.08c-.05.05-.31.11-.56.14-1.24.14-1.42.18-1.42.25,0,.05-.2.08-.45.08s-.49.04-.52.09c-.08.14-.23.11-.23-.05,0-.07.05-.14.09-.14.06,0,.09-1.83.09-5.32,0-2.93-.03-5.32-.06-5.32-.05,0-.13.06-.19.14ZM35.75,14.68c.14.07.49.14.78.14s.51.04.51.09c0,.05.17.09.37.09s.37.04.37.09c0,.05.1.09.23.09s.23.04.23.09c0,.05.06.09.12.09.17,0,.62.22.62.3,0,.05.06.07.14.07s.3.17.51.37l.37.36v.75c0,.44-.04.74-.09.74-.05,0-.09.09-.09.2,0,.22-.81,1.95-.94,2-.04.02-.07.09-.07.17s-.12.26-.28.43c-.15.16-.28.32-.28.36,0,.05-.18.26-.4.47-.21.22-.56.6-.75.86-.47.59-1.22,1.34-1.34,1.34-.05,0-.44.34-.86.77s-.89.86-1.05.96c-.15.11-.48.39-.73.62-.24.23-.48.43-.53.43s-.21.12-.38.28c-.16.15-.32.28-.36.28s-.18.1-.31.23-.27.23-.31.23-.21.12-.37.28c-.17.15-.35.28-.42.28-.07,0-.22.1-.34.23-.11.12-.24.2-.28.19-.04-.03-.12.02-.19.09s-.19.14-.29.14c-.1,0-.18.04-.18.09,0,.05-.08.09-.19.09s-.19.04-.19.09c0,.05-.08.09-.19.09s-.19.04-.19.09c0,.05-.06.09-.14.09s-.22.04-.32.09-.27.13-.37.19c-.1.05-.26.09-.36.09-.09,0-.19.06-.23.14-.03.07-.14.14-.24.14s-.19.04-.19.09c0,.05-.12.09-.28.09-.15,0-.28.04-.28.09,0,.05-.08.09-.18.09-.1,0-.21.04-.24.09-.03.05-.14.09-.24.09-.09,0-.25.04-.34.08-.26.13-.6.27-.82.33-.12.04-.21.1-.21.15s-.06.08-.14.08-.31.17-.52.37c-.21.2-.44.37-.53.37-.07,0-.19.06-.25.16-.06.08-.16.12-.21.08-.14-.08-.15-.98-.02-.98.06,0,.09-.4.09-1.02s.04-1.02.09-1.02.09-.38.09-.96c0-.55.04-1,.09-1.03s.09-.47.09-1.01.04-.98.09-1.04c.05-.05.09-.52.1-1.06,0-.66.06-1.03.14-1.16.09-.13.13-.49.13-1.27,0-.67.04-1.09.09-1.09s.09-.49.09-1.29.04-1.31.09-1.35.09-.57.09-1.31v-1.24h.27c.16,0,.31-.05.33-.09.03-.06.31-.09.61-.09s.55-.04.55-.09.29-.09.69-.09.7-.04.72-.09c.02-.05.4-.09.86-.1.47-.02.93-.07,1.06-.15.35-.19,6.68-.17,7.05.02ZM22.22,34.29c0,.17.22.62.31.62.04,0,.06.07.06.17s.08.26.19.37.19.26.19.33c0,.06.06.15.14.19.07.03.14.13.14.22s.11.23.26.31c.14.07.38.24.53.38.2.19.38.26.63.26.19,0,.34-.05.34-.09,0-.06.15-.09.32-.09s.32-.05.32-.09c0-.06.12-.09.27-.09.16,0,.31-.05.33-.09.03-.06.19-.09.37-.09s.34-.05.37-.09c.03-.06.26-.09.51-.09s.46-.05.48-.1.21-.12.43-.14.47-.07.56-.13c.24-.12,4.36-.12,4.69,0,.14.06.48.12.77.15s.56.08.6.13c.06.06.27.09.48.09s.43.04.45.09c.03.05.19.09.37.09s.34.04.37.09c.03.05.18.09.32.09s.3.04.32.09c.03.05.18.09.33.09.15,0,.27.04.27.09,0,.05.08.09.19.09s.21.06.24.14c.04.08.18.14.32.14s.27.04.27.09c0,.05.08.09.18.09.1,0,.21.04.24.09.03.05.14.09.24.09.09,0,.18.04.18.09,0,.05.08.09.19.09s.19.04.19.09c0,.05.07.09.17.09s.27.1.39.23.27.23.34.23c.06,0,.12.04.12.09,0,.05.07.09.17.09s.22.08.3.19.17.19.2.19c.14,0,.71.69.72.85,0,.09.05.17.09.17.06,0,.09.08.09.18,0,.1-.04.21-.09.24s-.09.34-.09.7-.04.64-.09.64c-.05,0-.09.19-.09.42s-.04.42-.09.42c-.05,0-.09.12-.09.28,0,.15-.04.28-.09.28-.05,0-.09.13-.09.28,0,.17-.06.31-.14.33-.07.04-.14.11-.14.19,0,.06-.08.27-.19.45s-.19.39-.19.46-.04.14-.07.14c-.05,0-.14.11-.21.25-.07.15-.2.32-.29.41-.09.08-.17.2-.17.26,0,.12-2.28,2.42-2.41,2.42-.05,0-.23.15-.41.32-.19.18-.38.32-.44.32-.07,0-.19.08-.26.19s-.19.19-.28.19c-.19,0-.46.22-.46.37,0,.06-.06.09-.13.06-.06-.03-.23.06-.36.18s-.31.22-.39.22c-.07,0-.14.04-.14.09,0,.05-.08.09-.19.09s-.19.04-.19.09c0,.05-.08.09-.19.09s-.19.04-.19.09c0,.05-.06.09-.12.09-.19,0-.71.28-.71.38,0,.05-.08.08-.18.08-.1,0-.21.04-.24.09-.03.05-.16.09-.28.09s-.25.04-.28.09c-.03.05-.14.09-.24.09-.09,0-.18.04-.18.09,0,.05-.08.09-.18.09-.1,0-.21.04-.24.09-.03.05-.16.09-.28.09s-.25.04-.28.09c-.04.06-.71.09-1.71.09s-1.68-.04-1.71-.09c-.03-.06-.22-.09-.43-.09s-.36-.05-.36-.09c0-.06-.15-.09-.32-.09s-.32-.05-.32-.09c0-.06-.12-.09-.28-.09-.15,0-.28-.05-.28-.09,0-.06-.1-.09-.23-.09s-.31-.04-.4-.08c-.18-.09-1.06-.54-1.38-.69-.12-.06-.21-.13-.21-.18,0-.04-.1-.06-.22-.06s-.24-.03-.26-.07c-.05-.11-.81-.48-1-.48-.09,0-.21-.06-.28-.14-.15-.18-.56-.18-.8,0-.39.3-.41.22-.41-1.48,0-1.02.04-1.62.09-1.62s.09-.47.09-1.24.04-1.27.09-1.31.09-.53.09-1.17c0-.68.04-1.1.09-1.1s.09-.44.09-1.11c0-.63.04-1.11.08-1.11.06,0,.11-.49.14-1.09.1-2.22.19-3.25.31-3.37.06-.06.11-.33.11-.6s.05-.49.09-.49c.06,0,.09.06.09.12Z" /><path d="M61.31,2.52c-.06.06-.11.35-.11.64s-.04.56-.09.59c-.05.03-.09.21-.09.41s-.05.39-.1.44-.11.28-.13.49c0,.21-.06.43-.13.49-.06.06-.1.31-.1.55s-.04.44-.09.44c-.05,0-.09.23-.09.51s-.04.51-.09.51c-.05,0-.09.2-.09.45s-.04.49-.09.52c-.05.03-.09.22-.09.43s-.04.36-.09.36c-.05,0-.09.22-.09.5,0,.32-.05.52-.12.55-.06.03-.13.22-.15.44,0,.22-.06.44-.11.5-.05.05-.08.26-.08.48s-.04.4-.09.4c-.05,0-.09.2-.09.45s-.04.49-.09.52c-.05.03-.09.26-.09.52s-.04.45-.09.45c-.05,0-.09.23-.09.51s-.04.51-.09.51c-.05,0-.09.2-.09.45s-.04.49-.09.52c-.05.03-.09.26-.09.5s-.06.52-.14.62c-.07.09-.14.37-.14.61s-.04.46-.09.49c-.05.03-.09.29-.09.56s-.04.5-.09.5c-.05,0-.09.22-.09.5s-.04.54-.09.56c-.05.03-.09.29-.09.56s-.04.5-.09.5c-.05,0-.09.22-.09.5s-.04.54-.09.56c-.05.03-.09.28-.09.55s-.04.52-.09.57c-.05.05-.09.29-.1.53s-.07.48-.15.54c-.07.06-.12.3-.12.6,0,.27-.04.52-.09.55-.05.03-.09.28-.09.56s-.04.53-.09.56c-.05.03-.09.28-.09.56s-.04.53-.09.56c-.05.03-.09.31-.09.6s-.04.57-.09.6c-.05.03-.09.3-.09.59s-.05.57-.09.62c-.06.06-.12.36-.14.68-.03.32-.09.67-.14.76-.06.09-.09.42-.09.72s-.04.56-.09.56-.09.3-.09.69-.04.69-.09.69-.09.28-.09.64-.04.68-.09.7c-.05.03-.09.37-.09.75s-.04.69-.09.69-.09.31-.09.73c0,.5-.04.75-.11.77-.07.03-.13.31-.15.78-.02.4-.07.77-.12.82-.05.05-.08.43-.08.85,0,.45-.04.77-.09.77s-.09.39-.09.97-.04.97-.09.97-.09.41-.09,1.05c0,.57-.04,1.08-.08,1.13-.06.06-.11.61-.14,1.25s-.09,1.86-.15,2.73c-.15,2.32-.21,9.69-.09,9.81.05.05.09.41.09.8,0,.6.03.73.22.95.29.33.54.3.67-.1.05-.16.14-.34.2-.41s.11-.23.11-.37.05-.26.09-.26c.06,0,.09-.13.09-.28,0-.16.05-.28.09-.28.06,0,.09-.1.09-.22,0-.13.04-.26.09-.29.05-.03.09-.16.09-.28s.05-.25.09-.28c.06-.03.09-.18.09-.32s.06-.33.15-.42c.08-.07.13-.2.1-.27-.03-.07,0-.2.07-.31.07-.09.14-.28.14-.42s.05-.28.09-.31c.06-.03.09-.19.09-.37s.05-.34.09-.37c.06-.03.09-.18.09-.33,0-.15.05-.27.09-.27.06,0,.09-.14.09-.31s.05-.35.09-.38c.06-.03.09-.18.09-.31,0-.15.06-.31.14-.38s.14-.21.14-.33c0-.11.05-.24.09-.27.06-.03.09-.18.09-.33,0-.15.05-.27.09-.27.06,0,.09-.14.09-.31s.05-.35.09-.38c.06-.03.09-.2.09-.38s.05-.31.09-.31c.06,0,.09-.14.09-.31s.05-.35.09-.38c.06-.03.09-.19.09-.37s.05-.34.09-.37c.06-.03.09-.19.09-.35,0-.17.06-.38.14-.47.07-.1.14-.34.14-.53,0-.19.05-.38.09-.41.06-.03.09-.24.09-.47s.05-.41.09-.41c.06,0,.09-.22.09-.5s.05-.54.09-.56c.06-.03.09-.29.09-.56s.05-.5.09-.5c.06,0,.09-.3.09-.69s.04-.69.09-.69.09-.32.09-.79.04-.79.09-.79.09-.42.09-1.06c0-.82.03-1.07.14-1.17s.14-.4.14-1.68c0-.98.04-1.56.09-1.56s.09-.68.09-1.84.04-1.87.09-1.91.09-.74.09-1.81.04-1.77.09-1.81.09-.81.09-1.99.04-1.95.09-1.99.09-.78.09-1.91c0-1.19.04-1.93.1-2.05.06-.13.1-.81.09-1.92,0-1.38.02-1.78.13-1.99.11-.2.14-.61.14-1.92,0-1,.04-1.67.09-1.7s.09-.81.09-1.99.04-1.95.09-1.99.09-.86.09-2.18.04-2.14.09-2.18c.11-.06.13-3.56.02-3.56-.04,0-.12.05-.19.11Z" /><path d="M74.12,7.86c-.06.05-.46.11-.93.14-1.19.06-1.81.15-1.81.25,0,.05-.12.08-.26.08-.15,0-.34.06-.44.14-.09.07-.29.14-.43.14-.15,0-.26.04-.26.09,0,.05-.1.09-.23.09s-.23.04-.23.09c0,.05-.12.09-.28.09-.15,0-.28.04-.28.09,0,.05-.08.09-.18.09-.1,0-.21.04-.24.09-.03.05-.14.09-.23.09-.17,0-.96.39-1.15.56-.06.05-.17.08-.26.08s-.17.04-.17.09c0,.05-.08.09-.19.09s-.19.04-.19.09c0,.05-.08.09-.19.09s-.19.04-.19.09c0,.05-.07.09-.16.1-.09,0-.29.08-.44.18-.43.27-.81.46-.9.46-.14,0-.35.25-.35.41,0,.11.09.15.31.15.18,0,.35-.05.38-.09.03-.06.16-.09.29-.09.12,0,.22-.05.22-.09,0-.06.15-.09.32-.09s.32-.04.32-.08.18-.1.4-.13c.73-.09,1.28-.22,1.38-.32.06-.06.25-.11.41-.11.17,0,.33-.05.36-.09.03-.06.22-.09.43-.09s.36-.05.36-.09c0-.06.19-.09.42-.09s.42-.05.42-.09c0-.06.3-.09.69-.09s.69-.04.69-.09.37-.09.92-.09.95.04.98.09c.03.05.32.09.65.09s.62.04.65.09c.03.05.18.09.32.09s.3.04.32.09c.03.05.18.09.32.09s.3.04.32.09c.03.05.13.09.22.09s.22.06.29.14.15.12.19.09.12.02.19.09.19.14.29.14c.1,0,.18.04.18.09,0,.05.08.09.19.09s.19.04.19.09c0,.05.06.09.15.09.19,0,1.89,1.7,1.89,1.9,0,.07.05.14.09.14.06,0,.09.08.09.18,0,.1.05.21.09.24.06.03.09.19.09.37s.05.34.09.37c.06.03.09.32.09.65s.05.62.09.65c.06.04.09.54.09,1.2s-.04,1.17-.09,1.2c-.05.03-.09.41-.09.83s-.04.81-.09.83c-.05.03-.09.26-.09.5s-.04.47-.08.52c-.05.06-.11.27-.14.48-.14.99-.18,1.14-.3,1.24-.07.06-.13.22-.13.37,0,.14-.04.29-.09.31-.05.03-.09.18-.09.33,0,.15-.04.27-.09.27-.05,0-.09.12-.09.27,0,.16-.04.31-.09.33-.05.03-.09.18-.09.33,0,.15-.04.27-.09.27-.05,0-.09.12-.09.28,0,.15-.04.28-.09.28-.05,0-.09.06-.09.12,0,.13-.13.44-.47,1.11-.09.2-.18.42-.18.49s-.04.13-.09.13c-.05,0-.09.08-.09.19,0,.19-.04.27-.26.71-.06.12-.11.28-.11.35s-.04.14-.08.14c-.1,0-.38.52-.38.71,0,.06-.04.12-.09.12-.05,0-.09.08-.09.19s-.04.19-.09.19c-.05,0-.09.08-.09.19s-.04.19-.09.19c-.05,0-.09.08-.09.19s-.04.19-.09.19c-.05,0-.09.06-.09.12s-.15.33-.32.59c-.18.27-.32.55-.32.63,0,.07-.04.14-.09.14-.05,0-.09.08-.09.19s-.04.19-.09.19c-.05,0-.09.08-.09.19s-.04.19-.08.19-.15.14-.24.3c-.25.49-.38.71-.52.88-.19.25-.36.56-.36.7,0,.06-.08.18-.19.25s-.19.2-.19.3-.04.17-.07.17c-.05,0-.16.15-.26.32-.09.18-.2.32-.24.32-.05,0-.07.08-.07.19s-.04.19-.08.19-.15.14-.22.3c-.14.3-.24.44-.69,1-.12.14-.21.31-.21.39,0,.06-.08.19-.19.26s-.19.19-.19.28-.08.2-.19.28-.19.2-.19.29c0,.09-.1.24-.23.34s-.23.24-.23.31c0,.06-.08.19-.19.26s-.19.18-.19.23-.15.28-.32.48c-.18.21-.32.42-.32.46,0,.04-.13.2-.28.37-.16.17-.28.34-.28.4,0,.05-.12.22-.28.39-.15.16-.28.33-.28.39s-.15.23-.32.38c-.18.16-.32.33-.32.39,0,.06-.17.3-.37.5-.2.21-.37.42-.37.46s-.19.27-.42.49c-.23.23-.42.46-.42.52,0,.05-.19.29-.44.53-.24.25-.57.63-.75.86-.32.43-.73.87-1.34,1.46-1.06,1.04-2.29,2.35-2.29,2.47,0,.05-.19.26-.42.45-.23.2-.42.44-.42.54s-.04.17-.09.17-.09.35-.09.88.04.88.09.88.09.1.09.22c0,.24.28.8.4.8.04,0,.06.08.06.19s.05.19.09.19c.06,0,.09.07.09.17s.08.26.19.37.19.26.19.34c0,.07.05.14.09.14.06,0,.09.08.09.18s.06.2.15.23c.07.03.12.09.08.15-.06.1.81,1.02.97,1.02.06,0,.25.15.43.32.17.18.34.32.4.32s.1.05.1.09c0,.11,2.46.08,6.56-.08,2.4-.09,3.5-.07,7.31.14.46.03.85.09.85.14s.29.08.64.08.68.05.7.09.31.09.6.09.57.04.6.09c.03.05.26.09.5.09s.48.05.54.1c.06.06.29.13.51.15s.44.08.48.13c.06.05.2.08.34.08s.29.04.31.09c.03.05.2.09.38.09s.31.04.31.09c0,.05.15.09.32.09s.32.04.32.09c0,.05.13.09.28.09.16,0,.28.04.28.09,0,.05.1.09.22.09.13,0,.26.04.29.09.03.05.13.09.22.09s.22.06.29.14c.19.24.95.19,1.28-.09.16-.13.33-.23.41-.23s.19-.11.27-.25c.07-.15.2-.34.3-.44.08-.1.16-.28.16-.39,0-.12.05-.24.09-.27.06-.03.09-.14.09-.24,0-.09.04-.18.08-.18s.1-.11.13-.26c.03-.14.14-.34.24-.45.33-.35.25-.6-.32-1.06-.29-.22-.57-.46-.64-.52-.07-.06-.21-.12-.31-.12s-.21-.05-.24-.09c-.04-.06.35-.09,1.08-.09.77,0,1.19-.04,1.26-.11.06-.06.11-.31.11-.55,0-.27.06-.47.14-.55.11-.09.14-.37.14-1.38,0-1.25,0-1.26-.27-1.56-.18-.19-.35-.3-.51-.3-.13,0-.24-.05-.24-.09,0-.06-.14-.09-.31-.09-.19,0-.35-.06-.44-.19-.07-.1-.19-.19-.24-.19-.06,0-.2-.1-.32-.23-.13-.13-.32-.23-.47-.23-.14,0-.28-.05-.31-.09s-.22-.09-.43-.09-.36-.05-.36-.09c0-.06-.17-.09-.37-.09s-.37-.05-.37-.09c0-.06-.26-.09-.59-.09s-.63-.04-.66-.09c-.04-.06-.49-.09-1.06-.09s-1.03-.04-1.06-.09c-.07-.13-7.98-.13-8.06,0-.03.06-.48.09-1.02.09s-.99.04-1.02.09-.39.09-.79.09-.76.04-.79.09c-.03.05-.23.09-.44.09h-.39l.23-.26c.13-.14.29-.36.36-.51.06-.14.16-.25.2-.25.04,0,.07-.07.07-.17s.08-.22.19-.3.19-.2.19-.3.04-.17.07-.17c.05,0,.16-.15.26-.32.09-.18.19-.32.23-.32.03,0,.15-.19.27-.42s.25-.42.3-.42c.04,0,.07-.08.07-.19s.05-.19.09-.19c.06,0,.09-.06.09-.15s.1-.23.23-.33.23-.24.23-.31.08-.22.19-.33.19-.26.19-.32.05-.12.09-.12c.06,0,.09-.08.09-.19s.04-.19.08-.19.15-.15.23-.32.19-.32.24-.32c.06,0,.09-.06.09-.14,0-.08.08-.23.19-.34s.19-.28.19-.37.05-.17.09-.17c.06,0,.09-.08.09-.19s.04-.19.08-.19.15-.15.23-.32.19-.32.24-.32c.06,0,.09-.08.09-.19s.05-.19.09-.19c.06,0,.09-.07.09-.17s.08-.22.19-.3.19-.2.19-.3c0-.08.05-.19.09-.21.06-.03.09-.14.09-.24,0-.09.05-.18.09-.18.06,0,.09-.08.09-.19s.05-.19.09-.19c.06,0,.17-.15.25-.32s.19-.32.23-.32c.04,0,.07-.08.07-.19s.05-.19.09-.19c.06,0,.09-.08.09-.19s.05-.19.09-.19c.06,0,.09-.08.09-.18,0-.1.05-.21.09-.24.06-.03.09-.14.09-.24,0-.09.04-.18.08-.18.09,0,.56-.9.56-1.08,0-.06.05-.12.09-.12.06,0,.09-.08.09-.19s.05-.19.09-.19c.06,0,.09-.06.09-.14s.08-.28.19-.46.19-.39.19-.45c0-.07.06-.15.14-.19.07-.03.14-.14.14-.24s.05-.19.09-.19c.06,0,.09-.08.09-.19s.05-.19.09-.19c.06,0,.09-.08.09-.19s.05-.19.09-.19c.06,0,.09-.08.09-.18,0-.1.05-.21.09-.24.06-.03.09-.16.09-.28s.05-.25.09-.28c.06-.03.09-.13.09-.23,0-.09.06-.19.14-.22.07-.03.14-.14.14-.24s.05-.19.09-.19c.06,0,.09-.1.09-.23,0-.12.08-.37.19-.56s.19-.44.19-.56c0-.13.05-.23.09-.23.06,0,.09-.08.09-.18,0-.1.05-.21.09-.24.06-.03.09-.15.09-.26s.06-.28.14-.37c.06-.1.1-.23.08-.29-.03-.06.02-.18.1-.24.07-.06.14-.19.14-.29s.05-.19.09-.22c.06-.03.09-.16.09-.28s.05-.25.09-.28c.06-.03.09-.16.09-.28s.05-.25.09-.28c.06-.03.09-.18.09-.32s.05-.3.09-.32c.06-.03.09-.19.09-.37,0-.17.04-.32.08-.34.06-.02.1-.13.12-.26s.08-.32.15-.44.11-.32.11-.48c0-.15.05-.31.09-.33.06-.03.09-.24.09-.46s.05-.44.09-.46c.06-.03.09-.26.09-.51s.05-.48.09-.51c.06-.03.09-.39.09-.8s.04-.73.09-.73.09-.86.09-2.41-.04-2.41-.09-2.41-.09-.24-.09-.55-.04-.58-.09-.61c-.05-.03-.09-.2-.09-.38s-.04-.31-.09-.31c-.05,0-.09-.13-.09-.28,0-.16-.04-.28-.09-.28-.05,0-.09-.1-.09-.21,0-.26-.26-.81-.38-.81-.05,0-.08-.06-.08-.13,0-.18-.39-.89-.48-.89-.04,0-.07-.06-.07-.12,0-.17-1.44-1.64-1.6-1.64-.08,0-.16-.04-.18-.07-.06-.15-.97-.76-1.13-.76-.08,0-.15-.05-.15-.09,0-.06-.08-.09-.19-.09s-.19-.05-.19-.09c0-.06-.08-.09-.19-.09s-.19-.05-.19-.09c0-.06-.13-.09-.28-.09-.17,0-.31-.06-.33-.14-.04-.07-.18-.14-.31-.14-.15,0-.3-.05-.32-.09-.03-.06-.22-.09-.43-.09s-.36-.05-.36-.09c0-.06-.33-.09-.82-.09-.46,0-.86-.05-.89-.09-.07-.12-.81-.12-.93,0Z" /></svg>