<svg xmlns="http://www.w3.org/2000/svg" viewBox="0 0 1024 1024"><path d="M719.726 157.754c.898-1.516 1.795-3.04 2.773-4.507 4.656-6.984 12.365-12.877 20.732-14.367 6.674-1.188 13.838.598 19.337 4.511 8.891 6.325 10.902 14.695 12.727 24.742 2.346-.039 4.693-.256 7.038-.348 8.964-.353 19.109 1.278 25.806 7.77 3.124 3.028 4.776 6.874 4.666 11.236-.254 10.012-7.908 17.016-14.707 23.322 2.644 1.384 5.383 2.593 7.85 4.291 7.508 5.165 12.83 12.668 14.38 21.723q.132.728.227 1.461t.153 1.471q.058.737.079 1.476t.003 1.479q-.016.739-.071 1.477-.054.737-.145 1.471t-.22 1.462-.293 1.45q-.165.72-.366 1.432t-.438 1.412-.508 1.389q-.272.687-.578 1.361-.307.673-.647 1.329-.34.657-.712 1.296-.373.639-.777 1.258-.405.619-.84 1.217c-6.202 8.654-14.95 12.417-25.174 14.029 1.635 3.003 3.254 5.952 4.336 9.208 2.385 7.178 2.189 15.137-1.343 21.926-2.973 5.713-8.095 10.315-14.335 12.114-7.343 2.117-13.943-.089-20.384-3.511-3.279 1.242-6.583 2.346-9.922 3.413 12.276 13.39 16.756 28.129 20.32 45.647-.851.198-.372.215-1.385-.384l-1.014.396c-3.64-14.027-7.428-31.075-18.194-41.462-3.3-3.184-7.196-5.6-11.02-8.094-2.973 5.313-7.064 9.914-13.112 11.643-4.641 1.327-9.905.763-14.13-1.581-5.127-2.843-7.486-7.451-9.778-12.599-14.297 3.018-24.51 10.975-34.676 21.035q7.593 18.45 14.627 37.12c4.523 11.903 8.741 23.824 14.54 35.187 7.686-12.769 20.162-36.187 30.635-45.496a34.7 34.7 0 0 1-3.349 7.94c-8.849 15.483-19.263 30.125-28.23 45.593q-8.647 14.836-17.04 29.818c-2.574 4.596-5.024 10.382-8.245 14.497l-.254-.291c-.129-.908-.163-.526.089-1.465.062-.229.134-.454.201-.681l-1.029-1.112c4.041-7.542 8.196-15.049 11.873-22.778-2.226-5.952-4.326-13.322-8.263-18.379-38.992 15.171-77.505 32.001-116.096 48.178-7.667 3.214-15.199 6.869-22.895 9.975 10.192 26.378 22.279 52.212 33.602 78.14 4.1 9.391 8.789 18.77 12.299 28.389 16.545-8.351 33.622-9.438 45.24-25.321-2.351.733-5.576 1.815-7.946.546q-.21-.111-.406-.244t-.378-.286-.345-.325-.309-.359-.269-.39-.226-.417-.18-.438q-.079-.224-.133-.455c-.649-2.705 1.096-5.612 2.708-7.631 4.298-5.382 9.515-8.249 12.525-14.794.466.897 1.122 1.886 1.408 2.847 3.579 3.568 6.711 7.549 10.406 11.021 10.176 9.563 23.437 13.695 36.978 15.727 9.167-17.229 20.719-33.643 31.1-50.188 12.014-19.148 23.475-39.326 36.951-57.466.897-1.206 1.736-2.162 3.177-2.691l.377.666c-1.271 6.309-16.582 26.817-20.759 35.485 1.38 7.313 3.999 16.753 2.669 24.118-1.483 8.21-9.776 13.689-16.073 18.249 15.272-1.333 30.752-1.205 45.967-2.778 4.55-.471 13.226-1.476 16.127-5.374 8.763-11.771.858-84.783-1.322-102.447-1.317-10.676-3.174-21.305-4.816-31.936l.308-.21c.936.586.47.494 1.349.464l.4-2.892q4.038 19.397 6.602 39.043c2.09 16.826 8.655 87.621.067 99.851-1.357 1.931-3.526 3.301-5.383 4.714 1.054 12.912.939 25.769-.862 38.635-1.041 7.44-3.048 14.597-3.261 22.154-.224 7.983 1.174 15.951 2.487 23.795.383-1.82.627-3.842 1.33-5.56.777.361.333.256 1.354.197 1.466-2.897 1.844-6.173 3.049-9.188l.518.745c-1.972 7.525-4.817 15.668-5.106 23.454-.456 12.264 1.296 24.737 2.222 36.95 1.292 17.041 2.214 34.238 3.226 51.306.886 14.94 2.197 29.961 2.664 44.912.414 13.242-.143 26.239 1.69 39.416.714-5.737 4.174-30.941 5.841-34.739l1.145-.001c2.677-3.661 1.61-11.644 4.277-14.857l.514.543c-7.942 35.688-13.233 72.788-13.3 109.391-.012 6.624-.371 13.632.522 20.207 3.647.049 7.299.138 10.945.052 1.899-14.274 4.904-27.77 8.685-41.66l.667 1.34-.146-.103.951.987-.095-.176.373-1.918c.285.028.591.001.851.121-2.444 13.83-7.039 27.6-8.693 41.514l12.039-.165c2.684-8.208 7.487-15.307 12.162-22.49 1.337.313 1.855.341 3.125-.2-4.18 7.551-9.014 14.9-12.721 22.68q19.697.156 39.395.032c4.288-.023 8.783-.606 13.024-.412 2.188.101 5.709.631 7.353 2.202l-.122.475c-7.004 2.035-17.721.487-25.181.53-22.655.13-45.381-.329-68.019.485-.172 2.7-.599 4.992-1.388 7.586-2.184 1.976-4.11 3.601-7.039 4.392-11.506 3.109-25.864 2.26-37.777 2.489-18.954.366-38.026.794-56.967-.141-10.477-.517-20.931-1.362-31.403-1.954-9.095-.514-20.367-.036-29.086-2.848-1.889-.61-3.737-1.855-5.012-3.378-1.552-1.854-2.86-4.13-4.094-6.211-11.271-2.681-29.603-.594-41.707-.362q-20.694.273-41.39.245-19.987.104-39.974-.04c-7.946-.08-16.268-.805-24.171.103-4.367.502-8.674 2.964-12.58 4.846l-.756-.712c-3.259 1.027-9.738 5.685-12.804 5.024 26.017-12.852 51.635-26.978 77.062-40.977q1.474-61.669.846-123.352l-.228-32.475c-.061-7.471.136-15.034-.703-22.466-8.883 4.164-17.134 10.217-25.709 15.042-19.501 10.973-39.133 21.367-58.067 33.326-.131 7.438.103 14.898.214 22.337q-.467 2.349-1 4.683-.632-1.541-1.285-3.073c-.28-7.589-.482-15.193-1.122-22.762-19.763-.498-39.583-.128-59.351-.041l-80.708.214-66.368.062c-12.955-.1-25.922-.718-38.876-.65-16.223.086-32.382 1.015-48.637.868.038 8.092.881 16.237 1.487 24.305l3.216 41.267c.55 7.239 1.415 14.602 1.344 21.855-.089 1.303-.102 2.582-.456 3.844-.169-1.892-.022-5.046-.822-6.7-.586 1.45-.851 2.935-1.125 4.468-1.951-15.591-2.606-31.463-3.721-47.135-1.03-14.468-2.596-29.038-2.933-43.534 7.653-6.269 16.93-10.907 25.142-16.457-1.166-19.87-4.399-40.054-6.751-59.833l-15.089-130.548c-2.134-18.891-5.392-37.862-6.672-56.821-.211-3.115-1.167-9.372.641-11.951 6.122-8.732 64.319-48.562 74.635-54.344 3.331-1.867 6.919-3.422 10.708-4.046 3.931-.647 8.217-.292 11.503 2.154 5.352 3.983 5.868 10.778 6.584 16.847l17.033.281c11.166-7.057 23.393-19.726 37.308-20.242 3.342-.124 6.806.614 9.278 3.005 4.517 4.369 4.198 11.25 4.219 17.012 6.052.065 12.392-.194 18.324 1.076 12.19-6.328 22.954-19.705 37.569-20.603 3.193-.197 6.445.511 8.868 2.703 4.763 4.308 4.778 11.387 5.105 17.289 6.872 1.102 14.527.55 21.499.58 8.979-7.103 20.834-18.463 32.795-18.797 3.064-.085 6.142.675 8.364 2.894 4.013 4.007 4.008 10.063 4.047 15.326 5.226.679 10.451.684 15.708.643 9.763-5.575 18.707-15.706 30.039-17.927 2.389-.468 6.022-.493 7.973 1.267 2.699 2.435 3.196 8.545 3.402 12.031 1.368 23.131-.178 46.647-.204 69.808q-.028 59.089 1.316 118.162c.391 25.887.011 51.928 1.761 77.766 5.285-.097 17.403-1.514 21.536 2.023 1.529 7.179.485 14.932.395 22.22-.124 10.183-.053 20.376-.053 30.56 0 43.105.622 86.291.079 129.386-16.533 9.382-33.626 17.669-50.101 27.13 13.901.996 28.072.15 42.012.12 34.372-.072 68.848-.924 103.197-.091 12.856-12.98 34.761-11.877 46.338-25.693.328-6.357-1.006-12.959-1.327-19.339-.75-14.888-1.093-29.806-1.7-44.702l-3.507-111.249c-.994-28.672-3.051-57.636-1.89-86.309-2.477-.802-5.334-2.018-7.912-2.305-2.727-.303-6.605 1.246-9.094.429-2.163-.71-3.826-3.862-5.004-5.666-2.338-.627-5.949-1.159-7.533-3.118-1.136-1.405-1.377-3.623-1.085-5.363.047-.28.105-.558.158-.837-2.079-.922-30.231 12.215-36.008 13.363q-.28.054-.561.104-1.1-1.467-2.026-3.049c-4.242-7.352-7.289-16.013-10.666-23.805l-21.368-49.686c-8.031-18.595-15.793-37.341-24.03-55.844-9.835-22.093-20.108-44.064-28.977-66.567-.919-2.334-3.208-7.047-2.182-9.445.831-1.943 3.717-2.78 5.533-3.543-1.209-3.425-3.294-7.831-2.983-11.472.284-3.327 1.984-4.742 4.415-6.822-.126-.127-.255-.251-.379-.38-1.464-1.528-3.76-3.595-3.537-5.908.118-1.224 1.988-2.457 2.926-3.104 8.054-5.552 22.362-11.077 31.539-15.713 21.845-11.035 43.489-23.131 65.839-33.08 1.503-.669 3.277-1.561 4.946-1.267 3.154 2.754 4.039 8.724 5.701 12.536l.252.569c7.994-3.866 15.769-8.219 23.776-12.093 5.118-2.475 13.9-7.756 19.536-5.51 2.315.923 3.904 3.033 5.04 5.162 2.112 3.96 3.314 8.736 4.854 12.96q4.665 12.884 9.638 25.653c7.19-8.513 15.498-14.479 25.652-19.009-2.321-7.489-1.821-12.298.668-19.622q-2.659-2.462-5.211-5.035c-10.806-11.083-13.156-22.799-12.939-37.825-1.963-.693-4.061-1.339-5.91-2.296-4.018-2.079-5.159-5.615-6.266-9.668.831-3.473 1.85-7.012 4.794-9.31 3.389-2.645 7.708-2.276 11.697-1.758.615-1.733 5.67-13.52 5.232-14.554-.095-.225-1.971-1.498-2.286-1.739-10.088-7.692-16.55-13.109-18.387-26.357-1.225-8.829.279-18.072 5.835-25.247q.436-.552.898-1.081.463-.529.951-1.034.489-.505 1.003-.985t1.05-.934q.537-.453 1.096-.879t1.138-.824q.58-.397 1.179-.765t1.215-.705 1.249-.643 1.281-.58 1.307-.515 1.332-.448 1.353-.381 1.37-.312q.689-.139 1.384-.244t1.394-.173c12.861-1.315 23.745 5.671 33.279 13.276m-188.558 307.35q39.436-17.213 79.208-33.633c19.58-8.149 39.3-16.079 58.66-24.736-4.861-10.748-9.192-21.713-13.757-32.587-4.137-9.851-8.527-19.6-12.561-29.493-3.705-9.085-6.837-18.527-10.999-27.405-.938-2-2.101-4.896-3.955-6.179-23.618 8.864-47.62 20.37-70.796 30.595-22.336 9.853-45.124 18.989-67.093 29.623 4.238 11.851 38.008 91.309 41.293 93.815M725.254 319.72c16.909-11.293 17.341-41.417 24.786-58.834 3.911 2.161 7.649 4.128 12.242 2.704 4.505-1.398 6.787-5.544 8.817-9.441-.419-3.734-.788-7.676-3.884-10.269-2.006-1.68-4.562-1.977-7.075-1.587-3.158.49-5.908 2.106-8.655 3.639-4.389-7.441-5.65-14.178-6.733-22.615-6.245 3.096-12.711 5.836-19.748 3.362-4.276-1.504-7.271-4.999-9.081-9.05-1.163-2.601-1.883-10.158-2.48-10.966-9.738 3.758-18.218 4.377-28.438 2.06-6.105 19.029-14.997 42.881-4.965 62.044 5.057 9.659 13.932 15.91 24.238 19.024 5.516 1.667 11.303 2.38 16.981 3.284-5.607 5.573-12.306 10.132-17.745 15.805 2.197 4.842 4.678 9.136 10.014 11.011 3.465 1.218 8.248.963 11.726-.171M130.462 448.543c2.67 24.449 3.847 49.153 7.58 73.466q6.044.12 12.082-.173c12.026-.435 24.399-.198 36.32-1.797-1.028-24.135-3.737-48.237-4.52-72.367q-7.474-.24-14.945.099c-12.165.225-24.355.73-36.517.772m157.664 70.786c14.95-.762 29.943-.133 44.906-.542-.88-12.211-.759-24.485-1.196-36.717-.418-11.702-1.365-23.431-1.485-35.134-1.675-.218-3.562-.66-5.237-.653-14.827 1.141-29.821.177-44.659 1.131.112 13.143.816 26.257 1.031 39.393.172 10.551-.679 22.153 1.147 32.508zm-70.502.999c14.052-.701 28.381.638 42.36-.54.125-8.77-1.37-67.729-3.563-73.09-1.457-.925-3.431-.863-5.098-.569-.14.025-.277.066-.416.1-14.174.587-28.364.639-42.537 1.267.237 11.972.887 23.916 1.228 35.883.329 11.498.218 25.785 2.264 36.951 1.909.018 3.859.125 5.762-.002m137.853-72.207.899 44.681c.212 8.401-.01 17.432 1.076 25.746 13.555-.043 27.12.014 40.673-.2 2.623-.135 5.255-.233 7.872-.448l-1.707-70.387c-13.027-.429-26.45-.264-39.48.242zm351.181 391.293c-.812 2.06-1.578 4.263-2.959 6.019-10.096 12.846-34.897 14.176-45.022 27.945 2.03.386 4.138.93 6.201 1.048 36.387 2.384 72.436-1.122 108.645-4.558-.179-10.646-.532-22.037-2.25-32.543l-3.931.37c-10.285 1.443-20.607 2.769-31.011 2.75-9.904-.017-19.786-1.07-29.673-1.031m-291.53-401.115c1.296 7.519.474 15.344.438 22.947q.066 17.126.381 34.249 1.09 40.412 1.712 80.834c.195 10.274.953 20.591.763 30.863-2.427 8.449-1.111 28.093-.412 37.324-.404 7.151.442 14.723.546 21.943.089 6.132-.561 12.365-.026 18.471.196 2.24.639 5.877 1.894 7.714l.751 14.165c2.161-.94 4.234-2.063 6.324-3.149.13-38.776-1.667-77.653-2.922-116.404-.73-22.561-.903-45.157-1.418-67.726l-.709-50.685c-.095-8.796-.678-17.744-.198-26.525.241-4.424.765-9.289 2.959-13.197 2.512-4.476 6.276-8.527 9.939-12.075 13.679-13.255 29.31-20.266 47.375-25.405-.012-1.783-.063-3.629-.403-5.383-.34-1.757-1.106-3.647-2.816-4.471-1.925-.928-4.32-.432-6.249.2-4.241 1.389-8.368 4.102-12.123 6.461-16.911 10.625-35.611 26.334-45.043 44.078-4.045-.027-8.079.492-12.129.44-16.667-.214-33.779-1.451-50.318 1.142-1.265.493-1.319.533-2.053 1.674.068.75-.127 1.133.562 1.597 3.346 2.253 17.661 1.012 22.181.457 3.891-.041 7.863-.007 11.729-.497 5.876-.745 17.588-4.63 23.071-2.769 1.051 1.932 1.107 2.263 3.298 2.939.954.295 1.93.536 2.896.788m238.173-105.673c11.249 26.744 20.942 56.289 34.941 81.505l4.42-8.025c-7.628-13.739-12.187-28.704-17.785-43.317-5.709-14.903-11.944-29.603-17.338-44.625-3.176-8.845-5.56-18.011-9.502-26.557-1.018-2.206-2.122-4.984-4.553-5.946-.557-.221-1.499-.2-2.066-.226q-25.817 13.158-52.015 25.54c-11.51 5.341-23.144 10.021-34.309 16.101l-.065-1.55.105 1.579c10.114 1.429 67.163-29.227 82.658-33.161 4.952 12.955 10.819 25.655 15.509 38.682m4.053 537.224c13.466-12.867 33.613-15.83 43.381-25.6 1.63-1.631 2.679-3.666 3.742-5.684-16.029-1.129-32.289.946-48.265-1.141-.6 5.153-2.336 8.546-6.436 11.832-10.876 8.716-27.967 10.959-40.179 19.502 8.669 1.055 40.501 5.118 46.276 2.652zM328.217 428.794c4.077-.031 8.274.145 12.334-.196 12.22-10.132 25.479-18.929 37.61-29.107-10.833-1.574-22.913-1.916-33.845-1.274-2.35.1-4.434.183-6.621 1.146-5.481 2.412-38.954 23.914-43.14 28.198-.469.48-.533.661-.817 1.181 2.651 2.072 29.302.129 34.479.052m-136.344-.483c9.401-5.014 17.726-11.655 26.453-17.72 5.51-3.829 11.56-7.214 16.46-11.817-13.57-.852-27.746-1.605-41.321-.614-11.253 5.539-33.513 21.769-43.598 30.329 13.997-.048 28.012.05 42.006-.178m438.94 115.199q-.121.298-.244.594c-3.013 7.127-16.803 16.495-14.857 24.301.723.953 1.299 1.816 2.571 2.004 1.702.251 3.413-.872 4.582-2 3.416-3.294 4.364-8.604 9.392-10.212l.649.417c-1.109 4.665-10.19 11.473-7.614 16.224.642 1.183 1.493 1.627 2.698 2.072 1.967-.05 3.299-.552 4.707-1.959 3.757-3.751 5.435-10.272 10.306-12.725l1.45.06-.221.44c-2.142 4.137-6.251 8.047-6.705 12.795.437.745.326.931 1.231 1.179 1.044.287 1.743.315 2.688-.272 4.458-2.766 6.896-9.405 10.881-13.138-.046.189-.088.378-.139.566-1.172 4.356-6.537 10.968-5.846 15.196.618 1.108 1.137 1.993 2.391 2.463 1.504.564 3.065-.026 4.334-.855 6.718-4.392 12.877-17.084 16.124-24.377-12.006-3.823-22.745-6.984-32.152-15.879-2.829-2.676-5.416-7.32-8.506-9.451-3.6 3.327-12.787 10.358-13.06 15.499-.027.514.11.845.252 1.308 1.184.675 2.088.417 3.397.042 4.092-1.173 7.401-3.512 11.691-4.292M358.691 424.306c9.583-7.234 34.167-27.568 44.787-29.31 7.014-1.15 14.958.292 22.065.496-.052-3.853-.035-8.19-2.473-11.411-1.425-1.883-3.579-2.78-5.872-3.059-11.164-1.358-32.462 18.115-41.224 25.006-6.296 4.952-12.722 9.749-19.084 14.618-5.186 2.8-9.89 7.405-14.364 11.254-6.983.748-14.148.061-21.056.945-7.933.61-16.147.06-24.143.333-2.13-.073-3.937-.15-6.005.469l.293.113c-3.263.05-12.427-.631-14.829 1.414-.429.365-.691.745-1.026 1.18l.231.731c7.143 2.423 53.279.124 65.476.509.058 1.683-.098 3.709.305 5.33-.825 17.908.129 36.172.693 54.089q1.206 35.39 1.734 70.797c.129 9.587 1.85 24.463.787 33.146-1.539 2.468-.484 26.116-.39 30.761.098-.189.19-.38.292-.567.116-.212.241-.419.361-.628l.715.422c.063 3.75.407 7.717.097 11.444-1.042 11.507-1.945 25.593 1.012 36.782.74 5.146-.679 13.858.794 18.161-.158 3.737-.148 7.429-.043 11.167l5.745-.044c-.002-4.948.024-9.866-.422-14.799 1.299-5.393-.384-34.075-.751-41.542.592-9.893-.116-20.102-.375-30.009l-1.18-47.656-2.651-83.813c-.253-8.21-.015-16.427-.245-24.634-.229-8.161-.845-16.373-1.236-24.534.437-2.306.249-4.931.296-7.287 3.703-3.453 8.285-6.132 11.686-9.874m357.7 72.059q-9.106 15.386-18.629 30.517l4.739-2.079c7.51-3.745 14.035-7.429 20.023-13.438-1.647-3.499-3.863-12.74-6.133-15m60.129 372.553c.83-.303 1.733-.303 2.062-1.2.635-1.733.097-29.297-.101-32.486l-.526-.726c-1.217.76-2.521 1.246-3.182 2.539.656 10.62 1.714 21.224 1.747 31.873M276.223 534.457q-1.628-47.268-4.319-94.488c-.66-.288-1.374-.655-2.068-.84-1.5-.399-1.703-.113-3.026.603-.214 11.779.712 23.57 1.09 35.342q.736 31.542 2.653 63.035c-.401 10.47.131 21.897 1.225 32.304-.375 13.345 1.56 26.72 1.32 40.015-1.4 5.077-.285 34.424.893 40.049.759.614.398.451.995.652l.049 1.277c-.374 4.811-1.99 14.321.953 18.202l1.793 37.465 6.159-.067c.589-20.816-1.971-43.273-2.809-64.233l-1.934-48.238c-.402-9.477-.364-19.291-1.829-28.667.923-7.398-.375-24.547-1.145-32.411M694.514 779.48c-1.327 6.257-.443 41.86 1.844 47.506.48.408.864.794 1.447 1.046.696-6.742 1.083-43.485-2.381-47.638-.338-.404-.491-.519-.91-.914M365.973 429.496q14.483.042 28.954-.555c6.175-.441 12.321-.421 18.509-.4 8.514-10.429 17.581-20.046 27.174-29.474-8.118.953-19.657-.627-28.453-.341-1.026.125-1.99.233-2.928.702-5.959 2.979-11.782 8.171-17.268 12.019-8.646 6.066-17.595 11.61-25.988 18.049m-173.411 12.156c.056 18.137 1.642 36.42 2.84 54.512 1.087 16.409 1.763 32.823 3.76 49.163-.097 3.716.06 8.273.772 11.918 1.8 40.348 5.551 80.677 8.87 120.923.458 5.542.626 23.781 2.488 27.656.722 1.504 1.604 2.753 3.212 3.333.875-.327.986-.246 1.59-1.058 1.262-1.699 1.526-4.744 1.456-6.801-.201-5.897-1.291-12.091-1.757-18.032l-4.955-58.733-3.529-43.408c-.701-8.838-1.109-17.853-2.458-26.615.3-3.517-.134-8.154-.771-11.602-1.01-17-2.575-33.955-3.666-50.946-.389-6.047-.286-12.113-.539-18.165-.48-11.477-1.322-22.886-1.601-34.385 1.449-7.848 8.861-11.56 14.617-16.218 4.347-2.002 16.302-10.871 19.821-14.136 8.833-5.265 17.313-10.944 26.49-15.631 9.341 1.665 19.331 1.438 28.789 1.414.192-3.862.617-8.114-1.228-11.658-1.117-2.145-2.934-3.658-5.271-4.305-3.038-.84-6.291-.169-9.181.899-13.969 5.158-33.251 21.954-46.794 30.253-4.621 2.273-8.978 5.799-13.194 8.774-6.054 4.554-12.712 11.108-20.339 12.53-2.486.464-5.067.16-7.552.525-6.549.162-32.557 1.344-36.99-1.25-.623-1.123-.836-1.373-.445-2.697 1.632-5.541 38.241-30.248 44.332-32.475 8.243-3.013 20.116-.945 28.841-.857-.119-4.466.067-8.987-3.41-12.341-1.084-1.045-2.442-1.819-3.705-2.626-3.683-.159-7.62-.556-11.106.902-10.817 4.523-32.884 21.655-43.213 28.945-10.651 7.519-24.052 15.617-33.389 24.386-1.278 1.201-1.886 2.095-1.904 3.865.879.652 1.283.752 2.412.85 7.025.609 14.608-.074 21.695-.155 12.225-.14 24.719.213 36.892-.864 2.29-.029 5.459-.61 7.42.591.623 1.221.653 2.187.7 3.519m503.23 328.793c1.092-14.49-1.597-38.305-2.834-53.476q-4.275-57.111-11.854-113.878c-.531-4.063-1.493-21.597-4.086-23.999-.616-.57-1.581-.794-2.359-1.039-.368 12.044 2.584 24.397 4.172 36.314q3.776 27.701 6.471 55.528c1.489 14.471 2.863 29.174 3.937 43.684.707 9.547 2.122 50.569 4.709 56.317l.726.165c.873.206.552.066 1.118.384M532.923 322.292c-4.057 1.273-27.314 12.258-29.906 14.68-3.481 1.729-6.823 2.888-8.807 6.409l.195.929c3.143.903 5.54-.673 8.192-2.138q.972-.538 1.937-1.089c3.78-.513 29.716-13.578 33.141-16.032 14.355-6.022 28.083-14.166 41.942-21.264 5.169-2.647 10.891-4.121 15.952-6.969.475-1.013.507-1.866.08-2.946-.505-1.277-.766-1.474-1.921-2.034-.992.056-1.627.177-2.531.632-11.509 5.788-22.911 11.933-34.392 17.81-7.924 4.056-16.131 7.633-23.882 12.012M276.434 429.648c6.472-3.685 12.656-8.762 18.718-13.144 6.343-4.571 30.168-20.829 36.447-22.018 8.395-1.59 18.343-.035 26.899.462.023-3.817.053-8.196-1.937-11.591-1.246-2.126-3.117-3.586-5.543-4.082-3.321-.68-6.824.182-9.884 1.48-10.415 4.418-19.879 12.355-29.054 18.914q-10.23 7.207-20.681 14.09c-7.951 4.431-16.031 10.319-23.127 15.973.348.48.661 1.261 1.289 1.358 2.473.38 4.505-2.558 6.873-1.442m331.717 441.826c.345 1.962.431 3.951 2.227 5.154 7.865 5.269 37.337 4.621 47.844 5.215a51 51 0 0 1-3.595-6.207c-11.681-1.276-23.428-1.614-35.129-2.74-3.562-.342-7.948-.391-11.347-1.422m61.548-629.341c1.304-.223 1.924-.068 2.731-1.197 2.213-3.096 3.439-8.969 2.807-12.721-.27-1.608-.907-2.259-2.212-3.149l-2.304-.124c-2.913 1.86-5.747 3.899-6.576 7.473-.494 2.134.059 4.279 1.3 6.059 1.12 1.606 2.672 2.57 4.254 3.659M529.198 344.245c-3.246 1.341-6.44 2.706-9.576 4.29-2.915 1.101-5.696 2.384-8.502 3.734q2.315.062 4.622.253l.418.724c-.604 1.057-1.026 1.729-2.254 2.091-2.292.678-4.111-.427-6.065-1.499-.997.346-1.64.669-2.46 1.336-3.697 1.618-8.831 3.414-11.162 6.977l.696.932c4.615.029 6.964-1.712 11.146-3.039 5.535-1.709 11.2-4.73 16.451-7.198 2.659-.872 5.486-2.13 7.926-3.496 6.614-2.527 13.075-5.594 19.55-8.463 5.632-2.427 13.102-4.704 18.034-8.216 5.648-2.64 11.536-4.879 17.245-7.408 14.88-6.591 29.777-13.268 45.035-18.946 14.381 32.744 26.912 66.383 41.727 98.919 1.953-.784 3.833-1.753 5.725-2.673-7.041-19.064-15.118-37.865-22.724-56.719-6.389-15.838-12.305-31.977-19.222-47.586-6.714 2.371-13.279 5.519-19.826 8.337-17.45 7.513-34.796 15.684-52.476 22.598-5.526 2.206-11.476 4.437-16.711 7.25-5.614 2.396-12.464 4.558-17.597 7.802m-.885-5.748c-1.984.881-4.139 1.665-5.991 2.788l1.539.541c-.187.501-.073.46-.656.702-2.765 1.148-4.721-.606-7.591 1.537l-.3.877c.464.569.867 1.399 1.594 1.57 5.205-2.219 10.549-4.317 15.605-6.819.293-.145.611-.236.916-.355l-.389-.507c-.768-.035-1.418-.001-2.183.063-.994.084-1.611-.101-2.544-.397m-138.84 207.798c5.512-.165 11.214-.043 16.67-.847.04-2.921.683-7.101-1.418-9.348-7.019-1.948-23.319-.356-31.414-.342-5.219.135-10.636-.023-15.809.675l.055 10.544q15.956-.431 31.916-.682M239.508 437.263c2.463-1.507 4.812-2.298 7.533-3.207l.415-.871c-7.605.077-16.325-.596-23.798.731-.332.502-.534 1.079-.833 1.6-.13.228-.824 1.016-1.017 1.241l-.041.374c5.641.836 12.078.534 17.741.132m-98.192 113.202q7.335-.353 14.658-.909c11.179-.613 22.342-1.509 33.518-2.184-.253-3.304-.414-6.646-.807-9.935q-7.422.01-14.838.292c-11.317.46-23.155-.367-34.343 1.394.49 3.805.94 7.601 1.812 11.342m119.118-14.932q-23.597-.391-47.19.163c-1.531 1.747-1.277 4.611-1.123 6.818q.143 1.962.448 3.906 23.47-.389 46.943-.384c.996-.698.805-.535.997-1.643.492-2.834.114-6.003-.075-8.86m45.934-136.343c-3.757-.363-15.14-1.837-18.082-.924-6.787.327-15.392-1.228-21.834.646-5.239 1.523-39.958 25.824-46.405 30.933 6.012.18 11.965.063 17.974-.155l23.744-.281c8.095-5.538 16.101-11.196 24.289-16.597 6.766-4.464 13.879-8.695 20.314-13.622m-3.091 137.038q-9.552.288-19.108.358c-.053 3.394-.004 6.747.165 10.138 10.076.298 20.182-.149 30.256-.423 6.409-.198 13.019-.121 19.377-.926-.375-3.1-.452-6.164-.511-9.282q-15.091-.336-30.179.135m467 336.986c-26.534 2.597-52.548 5.18-79.261 5.353-8.84.057-17.701-1.523-26.493-1.408-1.835.024-4.205-.077-5.468 1.379.359 1.368 1.187 2.124 2.399 2.847.378.226.776.416 1.168.615 13.172 2.043 100.521 2.692 107.586-2.446 1.848-1.343 2.932-2.876 3.37-5.105-.256-.599-.235-1.071-.906-1.29-.851-.277-1.539-.085-2.395.055"/><path d="M577.013 366.6c3.263-.282 7.646-.771 10.635.75 1.284.653 2.138 1.634 2.574 3.009.529 1.669.336 3.363-.469 4.909-3.553 6.82-14.856 9.935-21.69 12.166-3.449.18-7.934.785-11.098-.855-1.155-.599-2.082-1.467-2.362-2.793-.356-1.689.639-3.703 1.526-5.068 4.466-6.871 13.232-10.35 20.884-12.118m115.784-116.863c1.258.563 2.219.912 3.027 2.098-.31 2.938-5.623 4.7-7.753 6.715-.654 3.62 4.065 4.187 5.507 9.143-1.506-.042-2.938-.108-4.288-.831-2.278-1.221-4.319-3.31-4.936-5.875-1.846-7.668 5.571-6.099 8.19-10.783q.128-.233.253-.467m-3.617-27.557c1.171.379 2.441.805 3.322 1.714 1.36 1.404 1.635 3.441 1.743 5.306.215 3.68.115 15.023-2.252 17.674-1.582.395-2.021.001-3.505-.59-1.047-1.074-2.232-1.994-2.496-3.536l.5-.49q2.061.123 4.113.35l.586-.55c-.088-1.656-.137-3.319-.252-4.973-.193-2.766.156-4.612.926-7.237-1.37-2.566-2.412-4.727-2.685-7.668m20.471 7.444c.818.202 1.501.364 2.152.946 1.794 1.604 2.597 4.485 2.525 6.817-.079 2.526-1.168 5.365-3.079 7.072-1.773 1.584-3.598 1.536-5.859 1.454-1.492-.51-2.804-1.044-3.591-2.486 1.414-1.502 6.109-1.39 8.277-2.576 1.69-2.359-.761-7.791-.478-10.783.014-.149.036-.296.053-.444m49.126 19.24c.814.03 2.049.045 2.791.367 1.356.59 1.463 1.028 1.946 2.305-.559 3.137-2.182 4.532-4.563 6.534-.919.061-2.085.057-2.927-.361-1.179-.586-1.217-1.343-1.494-2.485.717-3.093 1.795-4.355 4.247-6.36"/><path fill="#FEFEFE" fill-opacity=".988" d="M342.526 431.9c4.474-3.849 9.178-8.454 14.364-11.254l-.493 2.158c.726.951 1.217 1.051 2.294 1.502-3.401 3.742-7.983 6.421-11.686 9.874-.047 2.356.141 4.981-.296 7.287l-.553-.73c-1.376-.012-2.761.74-3.809 1.62-.206.173-.383.378-.575.567-.403-1.621-.247-3.647-.305-5.33-12.197-.385-58.333 1.914-65.476-.509l-.231-.731c.335-.435.597-.815 1.026-1.18 2.402-2.045 11.566-1.364 14.829-1.414l-.293-.113c2.068-.619 3.875-.542 6.005-.469l-.288.67c5.368 4.229 19.652 1.956 26.215 1.137 1.908-.238 3.802-.614 5.679-1.022-2.474-.446-4.949-.978-7.463-1.118 6.908-.884 14.073-.197 21.056-.945"/><defs><linearGradient id="a" gradientUnits="userSpaceOnUse" x1="344.459" y1="676.828" x2="354.557" y2="680.879"><stop offset="0" stop-color="#fff" stop-opacity=".839"/><stop offset="1" stop-color="#fff" stop-opacity=".91"/></linearGradient></defs><path fill="url(#a)" d="M352.396 652.113c.367 7.467 2.05 36.149.751 41.542q-2.65 1.823-5.28 3.676c-1.473-4.303-.054-13.015-.794-18.161.279-7.192-.269-14.527-.288-21.741q.206-.158.414-.313c2.125-1.557 3.575-2.956 5.197-5.003"/><defs><linearGradient id="b" gradientUnits="userSpaceOnUse" x1="272.659" y1="562.391" x2="274.172" y2="536.951"><stop offset="0" stop-color="#fff" stop-opacity=".922"/><stop offset="1" stop-color="#fff"/></linearGradient></defs><path fill="url(#b)" d="M276.223 534.457c.77 7.864 2.068 25.013 1.145 32.411-1.912.693-2.9 1.201-4.386 2.554-.385.35-.801.664-1.204.991-1.094-10.407-1.626-21.834-1.225-32.304l.319-.28c.178-.154.36-.303.537-.459 1.592-1.403 2.815-2.161 4.814-2.913"/><path fill="#FEFEFE" fill-opacity=".984" d="M184.432 431.859c2.485-.365 5.066-.061 7.552-.525 7.627-1.422 14.285-7.976 20.339-12.53 1.199.383 2.393.805 3.619 1.093-1.252.859-2.656 1.556-3.432 2.881l.381.416c-5.756 4.658-13.168 8.37-14.617 16.218-1.072-.415-2.01.017-3.014.525-.939.474-1.829 1.123-2.698 1.715-.047-1.332-.077-2.298-.7-3.519-1.961-1.201-5.13-.62-7.42-.591.872-2.478 1.026-3.294-.01-5.683"/><path fill="#FEFEFE" fill-opacity=".988" d="M503.017 336.972c2.592-2.422 25.849-13.407 29.906-14.68 1.459 1.255 3.014 1.955 4.752 2.759-3.425 2.454-29.361 15.519-33.141 16.032l-.133-.4c.449-.962.749-.867 1.677-1.298l.296-1.149c-.635-.956-2.245-.997-3.357-1.264"/><path fill="#FEFEFE" d="M268.272 429.732c.348.48.661 1.261 1.289 1.358 2.473.38 4.505-2.558 6.873-1.442l-3.84 3.844q-.368 3.236-.69 6.477c-.66-.288-1.374-.655-2.068-.84-1.5-.399-1.703-.113-3.026.603-.425-.822-.209-.505-.813-1.249-2.223-2.739-21.753-.789-26.489-1.22 2.463-1.507 4.812-2.298 7.533-3.207l.415-.871c7.718-1.515 13.586.929 20.816-3.453"/><path fill="#FEFEFE" fill-opacity=".988" d="M291.399 413.759c.376 1.174.341 1.717 1.549 2.255.628.279 1.522.364 2.204.49-6.062 4.382-12.246 9.459-18.718 13.144-2.368-1.116-4.4 1.822-6.873 1.442-.628-.097-.941-.878-1.289-1.358 7.096-5.654 15.176-11.542 23.127-15.973"/><path fill="#FEFEFE" fill-opacity=".984" d="M529.198 344.245c5.133-3.244 11.983-5.406 17.597-7.802.719 1.566 1.587 3.639 3.193 4.444-6.475 2.869-12.936 5.936-19.55 8.463-.46-.715-.28-.286-.414-1.331.485-.593.851-.934 1.503-1.367.202-.135.411-.259.617-.389-.604-1.03-1.904-1.45-2.946-2.018"/><path fill="#FEFEFE" fill-opacity=".973" d="M546.795 336.443c5.235-2.813 11.185-5.044 16.711-7.25l.292 2.647c1.381.734 2.763.37 4.224.831-4.932 3.512-12.402 5.789-18.034 8.216-1.606-.805-2.474-2.878-3.193-4.444"/><path fill="#EAE8EA" fill-opacity=".988" d="M225.517 410.03c.749.702.706.964 1.799.975 1.382.013 2.557-.65 3.781-1.209l1.615-.738c-3.519 3.265-15.474 12.134-19.821 14.136l-.381-.416c.776-1.325 2.18-2.022 3.432-2.881-1.226-.288-2.42-.71-3.619-1.093 4.216-2.975 8.573-6.501 13.194-8.774"/><path fill="#EAE8EA" fill-opacity=".984" d="M374.134 437.838c-4.52.555-18.835 1.796-22.181-.457-.689-.464-.494-.847-.562-1.597.734-1.141.788-1.181 2.053-1.674 1.874.605 3.679 1.129 5.652 1.277 2.159.161 10.904-.993 12.239-.07 1.301.9.955 1.789 2.799 2.521"/><path d="m418.925 636.877 1.499 55.767c-1.255-1.837-1.698-5.474-1.894-7.714-.535-6.106.115-12.339.026-18.471-.104-7.22-.95-14.792-.546-21.943q.387-3.828.915-7.639"/><path fill="#FEFEFE" fill-opacity=".89" d="M204.08 542.908c.637 3.448 1.071 8.085.771 11.602-1.765.353-2.628.582-3.981 1.864-.184.174-.375.339-.56.511q-.19.178-.376.36c-.712-3.645-.869-8.202-.772-11.918.059-.007.123.004.177-.021 1.586-.75 3.141-1.642 4.741-2.398"/><path fill="#FEFEFE" fill-opacity=".969" d="M529.198 344.245c1.042.568 2.342.988 2.946 2.018-.206.13-.415.254-.617.389-.652.433-1.018.774-1.503 1.367.134 1.045-.046.616.414 1.331-2.44 1.366-5.267 2.624-7.926 3.496-.87-.324-1.644-.539-2.343-1.173-.621-.565-.481-2.292-.547-3.138 3.136-1.584 6.33-2.949 9.576-4.29"/><path fill="#FEFEFE" fill-opacity=".255" d="m274.528 642.632.751 1.424c1.186-.521 2.001-1.062 3.003-1.856 1.053.384.841.301 1.284 1.24 1.034 2.186 1.578 4.491.698 6.815-.893 2.358-1.702 3.809-4.057 4.796l-.689 1.196-.483-3.841-.049-1.277c-.079-2.841-.256-5.663-.458-8.497"/><path fill="#FEFEFE" fill-opacity=".984" d="M519.622 348.535c.066.846-.074 2.573.547 3.138.699.634 1.473.849 2.343 1.173-5.251 2.468-10.916 5.489-16.451 7.198.707-.941 1.292-1.943 1.894-2.952l-.355-.96-2.219-.958c.82-.667 1.463-.99 2.46-1.336 1.954 1.072 3.773 2.177 6.065 1.499 1.228-.362 1.65-1.034 2.254-2.091l-.418-.724q-2.307-.191-4.622-.253c2.806-1.35 5.587-2.633 8.502-3.734"/><path d="M273.098 610.428c1.271 10.526 1.084 21.587 1.43 32.204.202 2.834.379 5.656.458 8.497-.597-.201-.236-.038-.995-.652-1.178-5.625-2.293-34.972-.893-40.049"/><path fill="#EAE8EA" fill-opacity=".976" d="M528.313 338.497c.933.296 1.55.481 2.544.397.765-.064 1.415-.098 2.183-.063l.389.507c-.305.119-.623.21-.916.355-5.056 2.502-10.4 4.6-15.605 6.819-.727-.171-1.13-1.001-1.594-1.57l.3-.877c2.87-2.143 4.826-.389 7.591-1.537.583-.242.469-.201.656-.702l-1.539-.541c1.852-1.123 4.007-1.907 5.991-2.788"/><path d="M346.061 642.388c.531 5.004.443 10.024.724 15.041.019 7.214.567 14.549.288 21.741-2.957-11.189-2.054-25.275-1.012-36.782m71.949 2.128c-.699-9.231-2.015-28.875.412-37.324.065 9.903.361 19.787.503 29.685q-.528 3.811-.915 7.639m-73.024-43.56c1.146 8.34 1.242 21.494.978 29.988l-.715-.422c-.12.209-.245.416-.361.628-.102.187-.194.378-.292.567-.094-4.645-1.149-28.293.39-30.761m-69.951 51.45.483 3.841c.093 4.778.453 9.594.47 14.361-2.943-3.881-1.327-13.391-.953-18.202m-5.076 103.301c5.626-.39 11.917-.041 16.683 3.311 2.212 1.556 4.065 3.866 4.482 6.601.341 2.238-.337 4.435-1.8 6.15-3.93 4.608-11.111 4.784-16.699 5.226-6.444.159-13.846.565-19.396-3.357-1.876-1.326-3.403-3.25-3.668-5.593-.248-2.187.734-4.297 2.169-5.896 4.588-5.113 11.803-5.899 18.229-6.442m360.135-280.128c3.215-.2 6.58-.395 9.679.669 1.546.531 2.099 1.2 2.79 2.638-.03 1.61-.507 2.708-1.395 4.024-5.082 7.528-14.716 11.697-23.261 13.598q-2.337.407-4.709.465-2.372.057-4.727-.236c-1.8-.233-3.014-.586-4.153-2.064-.418-1.897.1-3.007 1.099-4.579 5.144-8.1 15.67-12.584 24.677-14.515"/><path d="m421.813 753.56.775-.811.59.369.808-.147c.743 9.915.543 19.878.742 29.814q.821 28.606.81 57.224c.046 14.024-.321 28.324 1.112 42.282 1.201-.514 2.504-1.233 3.768-1.526 3.066.661 9.545-3.997 12.804-5.024l.756.712c-6.144 4.763-14.283 9.196-22.154 9.83-4.92.397-10.079-.078-15.023-.159q-11.537-.125-23.074-.082l-90.027-.029-99.718.035c-17.366.017-35.106 1.113-52.403-.291-1.576-.128-3.167.022-4.373-1.174-2.832-2.811-2.165-8.836-2.168-12.454-10.083-.414-20.309-.259-30.4-.084-4.569.08-9.565.757-14.065.255-1.215-.136-2.185-.435-3.185-1.158l.078-.667c5.801-3.459 38.647-1.637 47.308-1.664l-4.644-68.271c.274-1.533.539-3.018 1.125-4.468.8 1.654.653 4.808.822 6.7.354-1.262.367-2.541.456-3.844 1.196 5.342 1.097 11.534 1.503 17.027q1.485 20.137 2.762 40.289c.538 8.676.361 18.173 2.348 26.632 16.618.797 33.466.346 50.111.367l90.384-.025 95.51-.148c16.097-.026 32.262.526 48.344-.11-.924-24.972-.796-50.026-1.072-75.014-.201-18.119-1.036-36.27-.61-54.386m383.764-244.116c13.957-27.49 37.314-58.109 67.529-67.999 11.935-3.907 24.953-3.911 36.302 1.87 10.419 5.307 17.229 14.917 20.727 25.909 5.003 15.724 3.464 32.842.645 48.836-.613 3.481-1.108 7.58-2.459 10.849l-.628-.398-1.035.237-1.01-.65c4.118-18.399 7.114-38.91 1.827-57.337-3.016-10.516-9.288-19.104-18.977-24.333-10.453-5.642-21.304-5.978-32.543-2.609-32.129 9.631-53.775 40.51-69.027 68.589-.118-1.427-.498-1.883-1.351-2.964M549.088 207.75c3.039-.441 7.601-1.042 10.483.126.913.37.612.127 1.017 1.03-2.717 2.34-12.919 2.033-16.78 2.455-12.079 1.319-23.566 4.751-34.675 9.579-35.767 15.547-61.583 46.705-75.738 82.442-.556 1.542-1.058 3.3-1.827 4.741-.588 1.101-1.075 1.551-2.248 1.896l-.504-.933c.078-3.783 2.032-7.604 3.468-11.056 5.815-13.974 13.061-26.904 22.522-38.754 23.909-29.952 56.431-47.269 94.282-51.526m289.754 376.87 1.953.867c-4.779 15.153-8.94 30.391-12.973 45.755-1.953 7.439-3.555 15.057-5.81 22.403 5.112-9.986 10.813-22.288 17.777-31.135.362.965.54 1.074.34 2.105-.165.85-.164 1.097.137 1.866l-.219.433c-6.739 13.129-15.173 25.315-21.004 38.975q-5.66 13.541-10.619 27.354c-1.604 4.569-2.929 11.048-5.275 15.101-1.673-1.371 1.847-6.377 1.562-8.686l-1.011-.32c3.747-11.475 9.358-22.276 12.805-33.855 3.12-10.48 4.619-21.575 7.351-32.196 4.227-16.435 9.727-32.539 14.986-48.667m71.983-9.477c.011.256.033.512.034.768 0 1.02-.207 1.638-.566 2.571.821.495.358.298 1.41.538-.415 1.67-.968 2.575-.16 4.203 1.266 2.552 3.704 5.052 5.4 7.378 3.951 5.416 5.923 13.3 5.979 19.942-1.923 2.743-1.453 10.142-.921 13.501.078.497.16.638.333 1.051-.259 8.458-2.676 18.318-5.062 26.457-1.803-5.295 2.822-9.936.522-15.541 1.762-7.213 2.485-15.595 2.219-23.007-.337-9.376-2.983-20.118-10.199-26.634-4.684-4.23-11.08-5.982-17.308-5.438-17.711 1.544-32.321 18.839-42.831 31.621l-2.058-.655c7.539-11.321 20.006-24.212 32.336-30.143 9.737-4.684 18.223-4.364 28.206-.806.796-1.988 1.708-3.89 2.666-5.806m-85.586 171.95c11.9-35.941 27.936-71.37 45.341-104.962 1.606-3.099 3.253-8.36 5.759-10.663l1.091.035c.506.555.789.563.672 1.392-.084.602-16.97 34.312-19.45 39.691q-10.237 22.251-19.266 45.019c-3.498 9.075-7.043 20.893-11.171 29.382-1.009-.045-1.97.02-2.976.106m73.056-48.497c1.742-.581 1.981-1.208 3.089-2.627l.861.02c-2.874 8.462-6.84 16.727-10.55 24.848q-15.751 33.67-34.102 65.996c-2.058 3.712-5.815 12.1-8.749 14.861-.674.032-.364-.039-1.096.295-.859.391-1.15.149-2.054-.038q19.548-33.271 36.557-67.908c5.669-11.691 10.673-23.627 16.044-35.447M505.237 257.369c1.324.321.802-.04 1.568 1.079-1.233 3.294-16.729 13.239-20.777 16.742-3.123 2.702-5.966 5.964-8.68 9.069-12.13 13.877-20.172 29.892-27.674 46.549l-.862.15-.806-.595c-.108-.912-.15-1.684.034-2.593 3.559-17.63 25.918-46.323 39.627-58.221 5.397-4.685 11.534-8.391 17.57-12.18m162.092 194.089 1.029 1.112c-.067.227-.139.452-.201.681-.252.939-.218.557-.089 1.465l.254.291c-9.158 18.323-19.341 36.289-29.232 54.236-3.324 6.03-6.071 12.574-9.552 18.473-.286-.961-.942-1.95-1.408-2.847 2.017-7.404 7.237-15.067 10.877-21.86q13.953-25.89 28.322-51.551"/><path d="M825.239 747.093c1.006-.086 1.967-.151 2.976-.106-4.962 15.949-10.647 31.625-15.225 47.709q-2.833 10.113-5.424 20.29c-.993 3.937-1.677 8.394-3.362 12.089-.26-.12-.566-.093-.851-.121l-.373 1.918.095.176-.951-.987.146.103-.667-1.34c5.559-25.672 14.54-55.005 23.636-79.731m-51.882-146.997c7.498-29.708 17.076-63.961 32.22-90.652.853 1.081 1.233 1.537 1.351 2.964-8.684 17.414-16.302 35.705-21.951 54.344-2.484 8.197-3.754 17.099-6.699 25.098l-.518-.745c-1.205 3.015-1.583 6.291-3.049 9.188-1.021.059-.577.164-1.354-.197m144.437 35.915c2.3 5.605-2.325 10.246-.522 15.541-2.691 9.832-10.232 36.654-15.027 44.437l-.861-.02c-1.108 1.419-1.347 2.046-3.089 2.627 7.824-20.455 15.763-40.9 19.499-62.585m-72.1 165.94c.904.187 1.195.429 2.054.038.732-.334.422-.263 1.096-.295-3.049 6.037-22.749 41.189-26.007 44.04-1.27.541-1.788.513-3.125.2 2.519-5.214 5.972-10.268 8.938-15.256zm17.036-280.615 1.619-.466.91.904c-9.429 20.901-17.221 41.963-24.464 63.713l-1.953-.867c5.864-15.585 11.025-31.399 17.11-46.926 2.12-5.408 4.053-11.229 6.778-16.358m-73.915 231.813q2.808-13.689 6.533-27.157t8.352-26.654l1.011.32c.285 2.309-3.235 7.315-1.562 8.686q-2.959 10.369-5.763 20.78c-.83 3.076-1.408 6.799-2.635 9.71l-.514-.543c-2.667 3.213-1.6 11.196-4.277 14.857zm133.311-211.295c.632 1.466.739 2.137.689 3.71-.02.639.127.958.484 1.475-2.164 8.112-7.505 25.222-11.596 31.981-1.052-.24-.589-.043-1.41-.538.359-.933.566-1.551.566-2.571-.001-.256-.023-.512-.034-.768.61-4.225 3.252-9.292 4.737-13.364q3.687-9.829 6.564-19.925M766.294 361.406l1.014-.396c1.013.599.534.582 1.385.384 1.561 5.276 2.692 10.662 3.684 16.07l-.4 2.892c-.879.03-.413.122-1.349-.464l-.308.21c-1.959-5.793-2.656-12.662-4.026-18.696"/><defs><linearGradient id="c" gradientUnits="userSpaceOnUse" x1="924.464" y1="534.925" x2="925.698" y2="535.25"><stop offset="0" stop-opacity=".969"/><stop offset="1"/></linearGradient></defs><path fill="url(#c)" d="m925.648 528.098 1.01.65 1.035-.237.628.398q-1.865 9.244-5.022 18.13c-.357-.517-.504-.836-.484-1.475.05-1.573-.057-2.244-.689-3.71q1.819-6.863 3.522-13.756"/><path d="M421.548 733.81q.653 1.532 1.285 3.073.533-2.334 1-4.683l.153 20.771-.808.147-.59-.369-.775.811c-.317-6.58-.266-13.165-.265-19.75m447.406-227.617c.559 1.518.731 1.806 1.944 2.869q-2.885 6.327-5.639 12.712l-.91-.904-1.619.466c1.863-5.109 4.174-10.101 6.224-15.143m-21.337 105.705 2.058.655c-3.002 4.507-5.936 9.8-9.409 13.928-.301-.769-.302-1.016-.137-1.866.2-1.031.022-1.14-.34-2.105 1.88-3.678 5.116-7.483 7.828-10.612"/><path d="M868.954 506.193c2.087-4.719 4.613-8.752 7.439-13.041-1.493 5.458-3.447 10.643-5.495 15.91-1.213-1.063-1.385-1.351-1.944-2.869m53.968 104.35c.261 4.904.213 9.695-.588 14.552-.173-.413-.255-.554-.333-1.051-.532-3.359-1.002-10.758.921-13.501"/></svg>